{
    "asset" : {
        "generator" : "Khronos glTF Blender I/O v1.1.46",
        "version" : "2.0"
    },
    "scene" : 0,
    "scenes" : [
        {
            "name" : "Bixler",
            "nodes" : [
                0
            ]
        }
    ],
    "nodes" : [
        {
            "mesh" : 0,
            "name" : "Bixler"
        }
    ],
    "materials" : [
        {
            "doubleSided" : true,
            "name" : "Bixler",
            "pbrMetallicRoughness" : {}
        }
    ],
    "meshes" : [
        {
            "name" : "Cube.001",
            "primitives" : [
                {
                    "attributes" : {
                        "POSITION" : 0,
                        "NORMAL" : 1,
                        "TEXCOORD_0" : 2
                    },
                    "indices" : 3,
                    "material" : 0
                }
            ]
        }
    ],
    "accessors" : [
        {
            "bufferView" : 0,
            "componentType" : 5126,
            "count" : 1755,
            "max" : [
                26.082765579223633,
                5.856689929962158,
                15.263287544250488
            ],
            "min" : [
                -26.082765579223633,
                -1.2590737342834473,
                -16.548322677612305
            ],
            "type" : "VEC3"
        },
        {
            "bufferView" : 1,
            "componentType" : 5126,
            "count" : 1755,
            "type" : "VEC3"
        },
        {
            "bufferView" : 2,
            "componentType" : 5126,
            "count" : 1755,
            "type" : "VEC2"
        },
        {
            "bufferView" : 3,
            "componentType" : 5123,
            "count" : 2715,
            "type" : "SCALAR"
        }
    ],
    "bufferViews" : [
        {
            "buffer" : 0,
            "byteLength" : 21060,
            "byteOffset" : 0
        },
        {
            "buffer" : 0,
            "byteLength" : 21060,
            "byteOffset" : 21060
        },
        {
            "buffer" : 0,
            "byteLength" : 14040,
            "byteOffset" : 42120
        },
        {
            "buffer" : 0,
            "byteLength" : 5430,
            "byteOffset" : 56160
        }
    ],
    "buffers" : [
        {
            "byteLength" : 61592,
            "uri" : "data:application/octet-stream;base64,"
        }
    ]
}
