{
    "asset" : {
        "generator" : "Khronos glTF Blender I/O v1.1.46",
        "version" : "2.0"
    },
    "scene" : 0,
    "scenes" : [
        {
            "name" : "Scene",
            "nodes" : [
                0
            ]
        }
    ],
    "nodes" : [
        {
            "mesh" : 0,
            "name" : "cuav_tvbs"
        }
    ],
    "materials" : [
        {
            "doubleSided" : true,
            "emissiveFactor" : [
                0,
                0,
                0
            ],
            "name" : "Wing",
            "pbrMetallicRoughness" : {
                "metallicFactor" : 1,
                "roughnessFactor" : 0.8964735269546509
            }
        },
        {
            "doubleSided" : true,
            "emissiveFactor" : [
                0,
                0,
                0
            ],
            "name" : "09 - Default",
            "pbrMetallicRoughness" : {
                "baseColorFactor" : [
                    1,
                    0.03921568766236305,
                    0.03921568766236305,
                    1
                ],
                "metallicFactor" : 1,
                "roughnessFactor" : 0.8964735269546509
            }
        },
        {
            "doubleSided" : true,
            "emissiveFactor" : [
                0,
                0,
                0
            ],
            "name" : "08 - Default",
            "pbrMetallicRoughness" : {
                "baseColorFactor" : [
                    0.5879999995231628,
                    0.5879999995231628,
                    0.5879999995231628,
                    1
                ],
                "metallicFactor" : 1,
                "roughnessFactor" : 0.8928226828575134
            }
        },
        {
            "doubleSided" : true,
            "emissiveFactor" : [
                0,
                0,
                0
            ],
            "name" : "Wing.001",
            "pbrMetallicRoughness" : {
                "metallicFactor" : 1,
                "roughnessFactor" : 0.8964735269546509
            }
        },
        {
            "doubleSided" : true,
            "emissiveFactor" : [
                0,
                0,
                0
            ],
            "name" : "09 - Default.001",
            "pbrMetallicRoughness" : {
                "baseColorFactor" : [
                    1,
                    0.03921568766236305,
                    0.03921568766236305,
                    1
                ],
                "metallicFactor" : 1,
                "roughnessFactor" : 0.8964735269546509
            }
        },
        {
            "doubleSided" : true,
            "emissiveFactor" : [
                0,
                0,
                0
            ],
            "name" : "03 - Default.001",
            "pbrMetallicRoughness" : {
                "baseColorFactor" : [
                    0.08235294371843338,
                    0.07058823853731155,
                    0.09803922474384308,
                    1
                ],
                "metallicFactor" : 1,
                "roughnessFactor" : 0.8928226828575134
            }
        },
        {
            "doubleSided" : true,
            "emissiveFactor" : [
                0,
                0,
                0
            ],
            "name" : "02 - Default.001",
            "pbrMetallicRoughness" : {
                "baseColorFactor" : [
                    0.5882353186607361,
                    0.5882353186607361,
                    0.5882353186607361,
                    1
                ],
                "metallicFactor" : 1,
                "roughnessFactor" : 0.8810793161392212
            }
        },
        {
            "doubleSided" : true,
            "emissiveFactor" : [
                0,
                0,
                0
            ],
            "name" : "Wing.003",
            "pbrMetallicRoughness" : {
                "metallicFactor" : 1,
                "roughnessFactor" : 0.8964735269546509
            }
        },
        {
            "doubleSided" : true,
            "emissiveFactor" : [
                0,
                0,
                0
            ],
            "name" : "09 - Default.003",
            "pbrMetallicRoughness" : {
                "baseColorFactor" : [
                    1,
                    0.03921568766236305,
                    0.03921568766236305,
                    1
                ],
                "metallicFactor" : 1,
                "roughnessFactor" : 0.8964735269546509
            }
        },
        {
            "doubleSided" : true,
            "emissiveFactor" : [
                0,
                0,
                0
            ],
            "name" : "03 - Default.003",
            "pbrMetallicRoughness" : {
                "baseColorFactor" : [
                    0.08235294371843338,
                    0.07058823853731155,
                    0.09803922474384308,
                    1
                ],
                "metallicFactor" : 1,
                "roughnessFactor" : 0.8928226828575134
            }
        },
        {
            "doubleSided" : true,
            "emissiveFactor" : [
                0,
                0,
                0
            ],
            "name" : "02 - Default.003",
            "pbrMetallicRoughness" : {
                "baseColorFactor" : [
                    0.5882353186607361,
                    0.5882353186607361,
                    0.5882353186607361,
                    1
                ],
                "metallicFactor" : 1,
                "roughnessFactor" : 0.8810793161392212
            }
        }
    ],
    "meshes" : [
        {
            "name" : "Mesh",
            "primitives" : [
                {
                    "attributes" : {
                        "POSITION" : 0,
                        "NORMAL" : 1,
                        "TEXCOORD_0" : 2
                    },
                    "indices" : 3,
                    "material" : 0
                },
                {
                    "attributes" : {
                        "POSITION" : 4,
                        "NORMAL" : 5,
                        "TEXCOORD_0" : 6
                    },
                    "indices" : 7,
                    "material" : 1
                },
                {
                    "attributes" : {
                        "POSITION" : 8,
                        "NORMAL" : 9,
                        "TEXCOORD_0" : 10
                    },
                    "indices" : 11,
                    "material" : 2
                },
                {
                    "attributes" : {
                        "POSITION" : 12,
                        "NORMAL" : 13,
                        "TEXCOORD_0" : 14
                    },
                    "indices" : 15,
                    "material" : 3
                },
                {
                    "attributes" : {
                        "POSITION" : 16,
                        "NORMAL" : 17,
                        "TEXCOORD_0" : 18
                    },
                    "indices" : 19,
                    "material" : 4
                },
                {
                    "attributes" : {
                        "POSITION" : 20,
                        "NORMAL" : 21,
                        "TEXCOORD_0" : 22
                    },
                    "indices" : 23,
                    "material" : 5
                },
                {
                    "attributes" : {
                        "POSITION" : 24,
                        "NORMAL" : 25,
                        "TEXCOORD_0" : 26
                    },
                    "indices" : 27,
                    "material" : 6
                },
                {
                    "attributes" : {
                        "POSITION" : 28,
                        "NORMAL" : 29,
                        "TEXCOORD_0" : 30
                    },
                    "indices" : 15,
                    "material" : 7
                },
                {
                    "attributes" : {
                        "POSITION" : 31,
                        "NORMAL" : 32,
                        "TEXCOORD_0" : 33
                    },
                    "indices" : 19,
                    "material" : 8
                },
                {
                    "attributes" : {
                        "POSITION" : 34,
                        "NORMAL" : 35,
                        "TEXCOORD_0" : 36
                    },
                    "indices" : 23,
                    "material" : 9
                },
                {
                    "attributes" : {
                        "POSITION" : 37,
                        "NORMAL" : 38,
                        "TEXCOORD_0" : 39
                    },
                    "indices" : 27,
                    "material" : 10
                }
            ]
        }
    ],
    "accessors" : [
        {
            "bufferView" : 0,
            "componentType" : 5126,
            "count" : 9878,
            "max" : [
                0.06663006544113159,
                0.02229614183306694,
                0.11542890965938568
            ],
            "min" : [
                -0.5675083994865417,
                -0.022296153008937836,
                -0.14916248619556427
            ],
            "type" : "VEC3"
        },
        {
            "bufferView" : 1,
            "componentType" : 5126,
            "count" : 9878,
            "type" : "VEC3"
        },
        {
            "bufferView" : 2,
            "componentType" : 5126,
            "count" : 9878,
            "type" : "VEC2"
        },
        {
            "bufferView" : 3,
            "componentType" : 5123,
            "count" : 49668,
            "type" : "SCALAR"
        },
        {
            "bufferView" : 4,
            "componentType" : 5126,
            "count" : 80,
            "max" : [
                0.3791734278202057,
                -0.0002979967975988984,
                0.055638592690229416
            ],
            "min" : [
                -0.37813568115234375,
                -0.007465322967618704,
                0.022105880081653595
            ],
            "type" : "VEC3"
        },
        {
            "bufferView" : 5,
            "componentType" : 5126,
            "count" : 80,
            "type" : "VEC3"
        },
        {
            "bufferView" : 6,
            "componentType" : 5126,
            "count" : 80,
            "type" : "VEC2"
        },
        {
            "bufferView" : 7,
            "componentType" : 5123,
            "count" : 192,
            "type" : "SCALAR"
        },
        {
            "bufferView" : 8,
            "componentType" : 5126,
            "count" : 152,
            "max" : [
                0.5671465992927551,
                0.007739424239844084,
                0.05460582673549652
            ],
            "min" : [
                -9.579581092111766e-05,
                -0.005706421565264463,
                -0.08874399214982986
            ],
            "type" : "VEC3"
        },
        {
            "bufferView" : 9,
            "componentType" : 5126,
            "count" : 152,
            "type" : "VEC3"
        },
        {
            "bufferView" : 10,
            "componentType" : 5126,
            "count" : 152,
            "type" : "VEC2"
        },
        {
            "bufferView" : 11,
            "componentType" : 5123,
            "count" : 432,
            "type" : "SCALAR"
        },
        {
            "bufferView" : 12,
            "componentType" : 5126,
            "count" : 3437,
            "max" : [
                0.21110445261001587,
                0.11614477634429932,
                0.3393579423427582
            ],
            "min" : [
                0.17071622610092163,
                -0.01826993189752102,
                -0.17025154829025269
            ],
            "type" : "VEC3"
        },
        {
            "bufferView" : 13,
            "componentType" : 5126,
            "count" : 3437,
            "type" : "VEC3"
        },
        {
            "bufferView" : 14,
            "componentType" : 5126,
            "count" : 3437,
            "type" : "VEC2"
        },
        {
            "bufferView" : 15,
            "componentType" : 5123,
            "count" : 9276,
            "type" : "SCALAR"
        },
        {
            "bufferView" : 16,
            "componentType" : 5126,
            "count" : 24,
            "max" : [
                0.19531287252902985,
                0.11614041775465012,
                0.35869404673576355
            ],
            "min" : [
                0.1915045827627182,
                0.0018953749677166343,
                0.3206123411655426
            ],
            "type" : "VEC3"
        },
        {
            "bufferView" : 17,
            "componentType" : 5126,
            "count" : 24,
            "type" : "VEC3"
        },
        {
            "bufferView" : 18,
            "componentType" : 5126,
            "count" : 24,
            "type" : "VEC2"
        },
        {
            "bufferView" : 19,
            "componentType" : 5123,
            "count" : 36,
            "type" : "SCALAR"
        },
        {
            "bufferView" : 20,
            "componentType" : 5126,
            "count" : 5375,
            "max" : [
                0.32159721851348877,
                0.1353137493133545,
                0.35893625020980835
            ],
            "min" : [
                0.0004223806317895651,
                -0.13429851830005646,
                -0.21989379823207855
            ],
            "type" : "VEC3"
        },
        {
            "bufferView" : 21,
            "componentType" : 5126,
            "count" : 5375,
            "type" : "VEC3"
        },
        {
            "bufferView" : 22,
            "componentType" : 5126,
            "count" : 5375,
            "type" : "VEC2"
        },
        {
            "bufferView" : 23,
            "componentType" : 5123,
            "count" : 13014,
            "type" : "SCALAR"
        },
        {
            "bufferView" : 24,
            "componentType" : 5126,
            "count" : 202,
            "max" : [
                0.20329172909259796,
                0.018515581265091896,
                -0.19938772916793823
            ],
            "min" : [
                0.1702268272638321,
                -0.014451524242758751,
                -0.22385023534297943
            ],
            "type" : "VEC3"
        },
        {
            "bufferView" : 25,
            "componentType" : 5126,
            "count" : 202,
            "type" : "VEC3"
        },
        {
            "bufferView" : 26,
            "componentType" : 5126,
            "count" : 202,
            "type" : "VEC2"
        },
        {
            "bufferView" : 27,
            "componentType" : 5123,
            "count" : 864,
            "type" : "SCALAR"
        },
        {
            "bufferView" : 28,
            "componentType" : 5126,
            "count" : 3437,
            "max" : [
                -0.1690870225429535,
                0.11642131954431534,
                0.3393579423427582
            ],
            "min" : [
                -0.20947524905204773,
                -0.01799331046640873,
                -0.17025154829025269
            ],
            "type" : "VEC3"
        },
        {
            "bufferView" : 29,
            "componentType" : 5126,
            "count" : 3437,
            "type" : "VEC3"
        },
        {
            "bufferView" : 30,
            "componentType" : 5126,
            "count" : 3437,
            "type" : "VEC2"
        },
        {
            "bufferView" : 31,
            "componentType" : 5126,
            "count" : 24,
            "max" : [
                -0.18987523019313812,
                0.11641692370176315,
                0.35869407653808594
            ],
            "min" : [
                -0.1936834752559662,
                0.0021718840580433607,
                0.3206123411655426
            ],
            "type" : "VEC3"
        },
        {
            "bufferView" : 32,
            "componentType" : 5126,
            "count" : 24,
            "type" : "VEC3"
        },
        {
            "bufferView" : 33,
            "componentType" : 5126,
            "count" : 24,
            "type" : "VEC2"
        },
        {
            "bufferView" : 34,
            "componentType" : 5126,
            "count" : 5375,
            "max" : [
                0.001206982065923512,
                0.13559050858020782,
                0.35893625020980835
            ],
            "min" : [
                -0.31996801495552063,
                -0.13402174413204193,
                -0.21989384293556213
            ],
            "type" : "VEC3"
        },
        {
            "bufferView" : 35,
            "componentType" : 5126,
            "count" : 5375,
            "type" : "VEC3"
        },
        {
            "bufferView" : 36,
            "componentType" : 5126,
            "count" : 5375,
            "type" : "VEC2"
        },
        {
            "bufferView" : 37,
            "componentType" : 5126,
            "count" : 202,
            "max" : [
                -0.16859763860702515,
                0.01879235729575157,
                -0.19938772916793823
            ],
            "min" : [
                -0.2016625553369522,
                -0.01417474914342165,
                -0.22385023534297943
            ],
            "type" : "VEC3"
        },
        {
            "bufferView" : 38,
            "componentType" : 5126,
            "count" : 202,
            "type" : "VEC3"
        },
        {
            "bufferView" : 39,
            "componentType" : 5126,
            "count" : 202,
            "type" : "VEC2"
        }
    ],
    "bufferViews" : [
        {
            "buffer" : 0,
            "byteLength" : 118536,
            "byteOffset" : 0
        },
        {
            "buffer" : 0,
            "byteLength" : 118536,
            "byteOffset" : 118536
        },
        {
            "buffer" : 0,
            "byteLength" : 79024,
            "byteOffset" : 237072
        },
        {
            "buffer" : 0,
            "byteLength" : 99336,
            "byteOffset" : 316096
        },
        {
            "buffer" : 0,
            "byteLength" : 960,
            "byteOffset" : 415432
        },
        {
            "buffer" : 0,
            "byteLength" : 960,
            "byteOffset" : 416392
        },
        {
            "buffer" : 0,
            "byteLength" : 640,
            "byteOffset" : 417352
        },
        {
            "buffer" : 0,
            "byteLength" : 384,
            "byteOffset" : 417992
        },
        {
            "buffer" : 0,
            "byteLength" : 1824,
            "byteOffset" : 418376
        },
        {
            "buffer" : 0,
            "byteLength" : 1824,
            "byteOffset" : 420200
        },
        {
            "buffer" : 0,
            "byteLength" : 1216,
            "byteOffset" : 422024
        },
        {
            "buffer" : 0,
            "byteLength" : 864,
            "byteOffset" : 423240
        },
        {
            "buffer" : 0,
            "byteLength" : 41244,
            "byteOffset" : 424104
        },
        {
            "buffer" : 0,
            "byteLength" : 41244,
            "byteOffset" : 465348
        },
        {
            "buffer" : 0,
            "byteLength" : 27496,
            "byteOffset" : 506592
        },
        {
            "buffer" : 0,
            "byteLength" : 18552,
            "byteOffset" : 534088
        },
        {
            "buffer" : 0,
            "byteLength" : 288,
            "byteOffset" : 552640
        },
        {
            "buffer" : 0,
            "byteLength" : 288,
            "byteOffset" : 552928
        },
        {
            "buffer" : 0,
            "byteLength" : 192,
            "byteOffset" : 553216
        },
        {
            "buffer" : 0,
            "byteLength" : 72,
            "byteOffset" : 553408
        },
        {
            "buffer" : 0,
            "byteLength" : 64500,
            "byteOffset" : 553480
        },
        {
            "buffer" : 0,
            "byteLength" : 64500,
            "byteOffset" : 617980
        },
        {
            "buffer" : 0,
            "byteLength" : 43000,
            "byteOffset" : 682480
        },
        {
            "buffer" : 0,
            "byteLength" : 26028,
            "byteOffset" : 725480
        },
        {
            "buffer" : 0,
            "byteLength" : 2424,
            "byteOffset" : 751508
        },
        {
            "buffer" : 0,
            "byteLength" : 2424,
            "byteOffset" : 753932
        },
        {
            "buffer" : 0,
            "byteLength" : 1616,
            "byteOffset" : 756356
        },
        {
            "buffer" : 0,
            "byteLength" : 1728,
            "byteOffset" : 757972
        },
        {
            "buffer" : 0,
            "byteLength" : 41244,
            "byteOffset" : 759700
        },
        {
            "buffer" : 0,
            "byteLength" : 41244,
            "byteOffset" : 800944
        },
        {
            "buffer" : 0,
            "byteLength" : 27496,
            "byteOffset" : 842188
        },
        {
            "buffer" : 0,
            "byteLength" : 288,
            "byteOffset" : 869684
        },
        {
            "buffer" : 0,
            "byteLength" : 288,
            "byteOffset" : 869972
        },
        {
            "buffer" : 0,
            "byteLength" : 192,
            "byteOffset" : 870260
        },
        {
            "buffer" : 0,
            "byteLength" : 64500,
            "byteOffset" : 870452
        },
        {
            "buffer" : 0,
            "byteLength" : 64500,
            "byteOffset" : 934952
        },
        {
            "buffer" : 0,
            "byteLength" : 43000,
            "byteOffset" : 999452
        },
        {
            "buffer" : 0,
            "byteLength" : 2424,
            "byteOffset" : 1042452
        },
        {
            "buffer" : 0,
            "byteLength" : 2424,
            "byteOffset" : 1044876
        },
        {
            "buffer" : 0,
            "byteLength" : 1616,
            "byteOffset" : 1047300
        }
    ],
    "buffers" : [
        {
            "byteLength" : 1048916,
            "uri" : "data:application/octet-stream;base64,"
        }
    ]
}
