{
    "asset" : {
        "generator" : "Khronos glTF Blender I/O v1.1.46",
        "version" : "2.0"
    },
    "scene" : 0,
    "scenes" : [
        {
            "name" : "Scene",
            "nodes" : [
                0
            ]
        }
    ],
    "nodes" : [
        {
            "mesh" : 0,
            "name" : "hex-x"
        }
    ],
    "materials" : [
        {
            "emissiveFactor" : [
                0,
                0,
                0
            ],
            "name" : "Material.002",
            "pbrMetallicRoughness" : {
                "baseColorFactor" : [
                    0,
                    0.7156831622123718,
                    1,
                    1
                ],
                "metallicFactor" : 0.5,
                "roughnessFactor" : 0.5
            }
        },
        {
            "emissiveFactor" : [
                0,
                0,
                0
            ],
            "name" : "Material.003",
            "pbrMetallicRoughness" : {
                "baseColorFactor" : [
                    0.4000000059604645,
                    0.4000000059604645,
                    0.4000000059604645,
                    1
                ],
                "metallicFactor" : 0.5,
                "roughnessFactor" : 0.5
            }
        },
        {
            "emissiveFactor" : [
                0,
                0,
                0
            ],
            "name" : "Material.004",
            "pbrMetallicRoughness" : {
                "baseColorFactor" : [
                    0.005700832698494196,
                    0.004546416457742453,
                    0.6392157673835754,
                    1
                ],
                "metallicFactor" : 0.5,
                "roughnessFactor" : 0.5
            }
        },
        {
            "emissiveFactor" : [
                0,
                0,
                0
            ],
            "name" : "Material.005",
            "pbrMetallicRoughness" : {
                "baseColorFactor" : [
                    0.01413710881024599,
                    1,
                    0,
                    1
                ],
                "metallicFactor" : 0.5,
                "roughnessFactor" : 0.5
            }
        },
        {
            "emissiveFactor" : [
                0,
                0,
                0
            ],
            "name" : "Material.001",
            "pbrMetallicRoughness" : {
                "baseColorFactor" : [
                    0.1764705926179886,
                    0.1764705926179886,
                    0.1764705926179886,
                    1
                ],
                "metallicFactor" : 0.5,
                "roughnessFactor" : 0.5
            }
        }
    ],
    "meshes" : [
        {
            "name" : "green1.001",
            "primitives" : [
                {
                    "attributes" : {
                        "POSITION" : 0,
                        "NORMAL" : 1,
                        "TEXCOORD_0" : 2
                    },
                    "indices" : 3,
                    "material" : 0
                },
                {
                    "attributes" : {
                        "POSITION" : 4,
                        "NORMAL" : 5,
                        "TEXCOORD_0" : 6
                    },
                    "indices" : 7,
                    "material" : 1
                },
                {
                    "attributes" : {
                        "POSITION" : 8,
                        "NORMAL" : 9,
                        "TEXCOORD_0" : 10
                    },
                    "indices" : 11,
                    "material" : 2
                },
                {
                    "attributes" : {
                        "POSITION" : 12,
                        "NORMAL" : 13,
                        "TEXCOORD_0" : 14
                    },
                    "indices" : 15,
                    "material" : 3
                },
                {
                    "attributes" : {
                        "POSITION" : 16,
                        "NORMAL" : 17,
                        "TEXCOORD_0" : 18
                    },
                    "indices" : 19,
                    "material" : 4
                }
            ]
        }
    ],
    "accessors" : [
        {
            "bufferView" : 0,
            "componentType" : 5126,
            "count" : 975,
            "max" : [
                0.3824753761291504,
                0.05580504238605499,
                0.45948129892349243
            ],
            "min" : [
                -0.41939806938171387,
                0.037251558154821396,
                -0.4365176558494568
            ],
            "type" : "VEC3"
        },
        {
            "bufferView" : 1,
            "componentType" : 5126,
            "count" : 975,
            "type" : "VEC3"
        },
        {
            "bufferView" : 2,
            "componentType" : 5126,
            "count" : 975,
            "type" : "VEC2"
        },
        {
            "bufferView" : 3,
            "componentType" : 5123,
            "count" : 5850,
            "type" : "SCALAR"
        },
        {
            "bufferView" : 4,
            "componentType" : 5126,
            "count" : 1140,
            "max" : [
                0.4537431299686432,
                0.00880387332290411,
                0.4005677402019501
            ],
            "min" : [
                -0.4537431597709656,
                -0.008424402214586735,
                -0.39903151988983154
            ],
            "type" : "VEC3"
        },
        {
            "bufferView" : 5,
            "componentType" : 5126,
            "count" : 1140,
            "type" : "VEC3"
        },
        {
            "bufferView" : 6,
            "componentType" : 5126,
            "count" : 1140,
            "type" : "VEC2"
        },
        {
            "bufferView" : 7,
            "componentType" : 5123,
            "count" : 6372,
            "type" : "SCALAR"
        },
        {
            "bufferView" : 8,
            "componentType" : 5126,
            "count" : 1710,
            "max" : [
                0.44186341762542725,
                0.059788089245557785,
                0.389794260263443
            ],
            "min" : [
                -0.44186341762542725,
                -0.005283666308969259,
                -0.38731712102890015
            ],
            "type" : "VEC3"
        },
        {
            "bufferView" : 9,
            "componentType" : 5126,
            "count" : 1710,
            "type" : "VEC3"
        },
        {
            "bufferView" : 10,
            "componentType" : 5126,
            "count" : 1710,
            "type" : "VEC2"
        },
        {
            "bufferView" : 11,
            "componentType" : 5123,
            "count" : 6444,
            "type" : "SCALAR"
        },
        {
            "bufferView" : 12,
            "componentType" : 5126,
            "count" : 1008,
            "max" : [
                0.4193980395793915,
                0.05580504238605499,
                0.45948129892349243
            ],
            "min" : [
                -0.382475346326828,
                0.016191869974136353,
                -0.4365176558494568
            ],
            "type" : "VEC3"
        },
        {
            "bufferView" : 13,
            "componentType" : 5126,
            "count" : 1008,
            "type" : "VEC3"
        },
        {
            "bufferView" : 14,
            "componentType" : 5126,
            "count" : 1008,
            "type" : "VEC2"
        },
        {
            "bufferView" : 15,
            "componentType" : 5123,
            "count" : 5946,
            "type" : "SCALAR"
        },
        {
            "bufferView" : 16,
            "componentType" : 5126,
            "count" : 9350,
            "max" : [
                0.22294902801513672,
                0.013848954811692238,
                0.2102346122264862
            ],
            "min" : [
                -0.2229490578174591,
                -0.009445063769817352,
                -0.20869900286197662
            ],
            "type" : "VEC3"
        },
        {
            "bufferView" : 17,
            "componentType" : 5126,
            "count" : 9350,
            "type" : "VEC3"
        },
        {
            "bufferView" : 18,
            "componentType" : 5126,
            "count" : 9350,
            "type" : "VEC2"
        },
        {
            "bufferView" : 19,
            "componentType" : 5123,
            "count" : 17514,
            "type" : "SCALAR"
        }
    ],
    "bufferViews" : [
        {
            "buffer" : 0,
            "byteLength" : 11700,
            "byteOffset" : 0
        },
        {
            "buffer" : 0,
            "byteLength" : 11700,
            "byteOffset" : 11700
        },
        {
            "buffer" : 0,
            "byteLength" : 7800,
            "byteOffset" : 23400
        },
        {
            "buffer" : 0,
            "byteLength" : 11700,
            "byteOffset" : 31200
        },
        {
            "buffer" : 0,
            "byteLength" : 13680,
            "byteOffset" : 42900
        },
        {
            "buffer" : 0,
            "byteLength" : 13680,
            "byteOffset" : 56580
        },
        {
            "buffer" : 0,
            "byteLength" : 9120,
            "byteOffset" : 70260
        },
        {
            "buffer" : 0,
            "byteLength" : 12744,
            "byteOffset" : 79380
        },
        {
            "buffer" : 0,
            "byteLength" : 20520,
            "byteOffset" : 92124
        },
        {
            "buffer" : 0,
            "byteLength" : 20520,
            "byteOffset" : 112644
        },
        {
            "buffer" : 0,
            "byteLength" : 13680,
            "byteOffset" : 133164
        },
        {
            "buffer" : 0,
            "byteLength" : 12888,
            "byteOffset" : 146844
        },
        {
            "buffer" : 0,
            "byteLength" : 12096,
            "byteOffset" : 159732
        },
        {
            "buffer" : 0,
            "byteLength" : 12096,
            "byteOffset" : 171828
        },
        {
            "buffer" : 0,
            "byteLength" : 8064,
            "byteOffset" : 183924
        },
        {
            "buffer" : 0,
            "byteLength" : 11892,
            "byteOffset" : 191988
        },
        {
            "buffer" : 0,
            "byteLength" : 112200,
            "byteOffset" : 203880
        },
        {
            "buffer" : 0,
            "byteLength" : 112200,
            "byteOffset" : 316080
        },
        {
            "buffer" : 0,
            "byteLength" : 74800,
            "byteOffset" : 428280
        },
        {
            "buffer" : 0,
            "byteLength" : 35028,
            "byteOffset" : 503080
        }
    ],
    "buffers" : [
        {
            "byteLength" : 538108,
            "uri" : "data:application/octet-stream;base64,"
        }
    ]
}
