{"asset":{"version":"2.0","generator":"THREE.GLTFExporter"},"scenes":[{"nodes":[0],"name":"AuxScene"}],"scene":0,"nodes":[{"mesh":0}],"bufferViews":[{"buffer":0,"byteOffset":0,"byteLength":249792,"target":34962,"byteStride":12},{"buffer":0,"byteOffset":249792,"byteLength":249792,"target":34962,"byteStride":12},{"buffer":0,"byteOffset":499584,"byteLength":7800,"target":34963},{"buffer":0,"byteOffset":507384,"byteLength":4128,"target":34963},{"buffer":0,"byteOffset":511512,"byteLength":864,"target":34963},{"buffer":0,"byteOffset":512376,"byteLength":2064,"target":34963},{"buffer":0,"byteOffset":514440,"byteLength":864,"target":34963},{"buffer":0,"byteOffset":515304,"byteLength":3900,"target":34963},{"buffer":0,"byteOffset":519204,"byteLength":1932,"target":34963},{"buffer":0,"byteOffset":521136,"byteLength":25128,"target":34963},{"buffer":0,"byteOffset":546264,"byteLength":2796,"target":34963},{"buffer":0,"byteOffset":549060,"byteLength":2064,"target":34963},{"buffer":0,"byteOffset":551124,"byteLength":864,"target":34963},{"buffer":0,"byteOffset":551988,"byteLength":25128,"target":34963},{"buffer":0,"byteOffset":577116,"byteLength":1932,"target":34963},{"buffer":0,"byteOffset":579048,"byteLength":3900,"target":34963},{"buffer":0,"byteOffset":582948,"byteLength":2064,"target":34963},{"buffer":0,"byteOffset":585012,"byteLength":2796,"target":34963},{"buffer":0,"byteOffset":587808,"byteLength":39048,"target":34963},{"buffer":0,"byteOffset":626856,"byteLength":2064,"target":34963},{"buffer":0,"byteOffset":628920,"byteLength":2796,"target":34963},{"buffer":0,"byteOffset":631716,"byteLength":7800,"target":34963},{"buffer":0,"byteOffset":639516,"byteLength":1932,"target":34963},{"buffer":0,"byteOffset":641448,"byteLength":25128,"target":34963}],"buffers":[{"byteLength":666576,"uri":"data:application/octet-stream;base64,"}],"accessors":[{"bufferView":0,"componentType":5126,"count":20816,"max":[4.406639575958252,0.6549080610275269,4.222103595733643],"min":[-4.181912422180176,-0.08912578225135803,-4.336985111236572],"type":"VEC3"},{"bufferView":1,"componentType":5126,"count":20816,"max":[1,1,1],"min":[-1,-1,-1],"type":"VEC3"},{"bufferView":2,"componentType":5123,"count":3900,"max":[649],"min":[0],"type":"SCALAR"},{"bufferView":3,"componentType":5123,"count":2064,"max":[997],"min":[650],"type":"SCALAR"},{"bufferView":4,"componentType":5123,"count":432,"max":[1143],"min":[998],"type":"SCALAR"},{"bufferView":5,"componentType":5123,"count":1032,"max":[1317],"min":[1144],"type":"SCALAR"},{"bufferView":6,"componentType":5123,"count":432,"max":[1463],"min":[1318],"type":"SCALAR"},{"bufferView":7,"componentType":5123,"count":1950,"max":[1788],"min":[1464],"type":"SCALAR"},{"bufferView":8,"componentType":5123,"count":966,"max":[1997],"min":[1789],"type":"SCALAR"},{"bufferView":9,"componentType":5123,"count":12564,"max":[6137],"min":[1998],"type":"SCALAR"},{"bufferView":10,"componentType":5123,"count":1398,"max":[6492],"min":[6138],"type":"SCALAR"},{"bufferView":11,"componentType":5123,"count":1032,"max":[6666],"min":[6493],"type":"SCALAR"},{"bufferView":12,"componentType":5123,"count":432,"max":[6812],"min":[6667],"type":"SCALAR"},{"bufferView":13,"componentType":5123,"count":12564,"max":[10952],"min":[6813],"type":"SCALAR"},{"bufferView":14,"componentType":5123,"count":966,"max":[11161],"min":[10953],"type":"SCALAR"},{"bufferView":15,"componentType":5123,"count":1950,"max":[11486],"min":[11162],"type":"SCALAR"},{"bufferView":16,"componentType":5123,"count":1032,"max":[11660],"min":[11487],"type":"SCALAR"},{"bufferView":17,"componentType":5123,"count":1398,"max":[12015],"min":[11661],"type":"SCALAR"},{"bufferView":18,"componentType":5123,"count":19524,"max":[15287],"min":[12016],"type":"SCALAR"},{"bufferView":19,"componentType":5123,"count":1032,"max":[15461],"min":[15288],"type":"SCALAR"},{"bufferView":20,"componentType":5123,"count":1398,"max":[15816],"min":[15462],"type":"SCALAR"},{"bufferView":21,"componentType":5123,"count":3900,"max":[16466],"min":[15817],"type":"SCALAR"},{"bufferView":22,"componentType":5123,"count":966,"max":[16675],"min":[16467],"type":"SCALAR"},{"bufferView":23,"componentType":5123,"count":12564,"max":[20815],"min":[16676],"type":"SCALAR"}],"materials":[{"pbrMetallicRoughness":{"baseColorFactor":[0,1,0,1],"metallicFactor":0.5,"roughnessFactor":0.5},"name":"Material.002"},{"pbrMetallicRoughness":{"baseColorFactor":[0.4,0.4,0.4,1],"metallicFactor":0.5,"roughnessFactor":0.5},"name":"Material.003"},{"pbrMetallicRoughness":{"baseColorFactor":[0,0.4470588235294118,0.6392156862745098,1],"metallicFactor":0.5,"roughnessFactor":0.5},"name":"Material.004"},{"pbrMetallicRoughness":{"baseColorFactor":[1,0,0,1],"metallicFactor":0.5,"roughnessFactor":0.5},"name":"Material.005"},{"pbrMetallicRoughness":{"baseColorFactor":[0.17647058823529413,0.17647058823529413,0.17647058823529413,1],"metallicFactor":0.5,"roughnessFactor":0.5},"name":"Material.001"}],"meshes":[{"primitives":[{"mode":4,"attributes":{"POSITION":0,"NORMAL":1},"indices":2,"material":0},{"mode":4,"attributes":{"POSITION":0,"NORMAL":1},"indices":3,"material":1},{"mode":4,"attributes":{"POSITION":0,"NORMAL":1},"indices":4,"material":2},{"mode":4,"attributes":{"POSITION":0,"NORMAL":1},"indices":5,"material":1},{"mode":4,"attributes":{"POSITION":0,"NORMAL":1},"indices":6,"material":2},{"mode":4,"attributes":{"POSITION":0,"NORMAL":1},"indices":7,"material":3},{"mode":4,"attributes":{"POSITION":0,"NORMAL":1},"indices":8,"material":2},{"mode":4,"attributes":{"POSITION":0,"NORMAL":1},"indices":9,"material":4},{"mode":4,"attributes":{"POSITION":0,"NORMAL":1},"indices":10,"material":2},{"mode":4,"attributes":{"POSITION":0,"NORMAL":1},"indices":11,"material":1},{"mode":4,"attributes":{"POSITION":0,"NORMAL":1},"indices":12,"material":2},{"mode":4,"attributes":{"POSITION":0,"NORMAL":1},"indices":13,"material":4},{"mode":4,"attributes":{"POSITION":0,"NORMAL":1},"indices":14,"material":2},{"mode":4,"attributes":{"POSITION":0,"NORMAL":1},"indices":15,"material":0},{"mode":4,"attributes":{"POSITION":0,"NORMAL":1},"indices":16,"material":1},{"mode":4,"attributes":{"POSITION":0,"NORMAL":1},"indices":17,"material":2},{"mode":4,"attributes":{"POSITION":0,"NORMAL":1},"indices":18,"material":0},{"mode":4,"attributes":{"POSITION":0,"NORMAL":1},"indices":19,"material":1},{"mode":4,"attributes":{"POSITION":0,"NORMAL":1},"indices":20,"material":2},{"mode":4,"attributes":{"POSITION":0,"NORMAL":1},"indices":21,"material":3},{"mode":4,"attributes":{"POSITION":0,"NORMAL":1},"indices":22,"material":2},{"mode":4,"attributes":{"POSITION":0,"NORMAL":1},"indices":23,"material":4}]}]}