{"asset":{"version":"2.0","generator":"THREE.GLTFExporter"},"scenes":[{"nodes":[0],"name":"AuxScene"}],"scene":0,"nodes":[{"mesh":0}],"bufferViews":[{"buffer":0,"byteOffset":0,"byteLength":170256,"target":34962,"byteStride":12},{"buffer":0,"byteOffset":170256,"byteLength":170256,"target":34962,"byteStride":12},{"buffer":0,"byteOffset":340512,"byteLength":2064,"target":34963},{"buffer":0,"byteOffset":342576,"byteLength":3900,"target":34963},{"buffer":0,"byteOffset":346476,"byteLength":11664,"target":34963},{"buffer":0,"byteOffset":358140,"byteLength":1932,"target":34963},{"buffer":0,"byteOffset":360072,"byteLength":2064,"target":34963},{"buffer":0,"byteOffset":362136,"byteLength":864,"target":34963},{"buffer":0,"byteOffset":363000,"byteLength":2064,"target":34963},{"buffer":0,"byteOffset":365064,"byteLength":5808,"target":34963},{"buffer":0,"byteOffset":370872,"byteLength":2064,"target":34963},{"buffer":0,"byteOffset":372936,"byteLength":3660,"target":34963},{"buffer":0,"byteOffset":376596,"byteLength":2064,"target":34963},{"buffer":0,"byteOffset":378660,"byteLength":3900,"target":34963},{"buffer":0,"byteOffset":382560,"byteLength":3900,"target":34963},{"buffer":0,"byteOffset":386460,"byteLength":5808,"target":34963},{"buffer":0,"byteOffset":392268,"byteLength":3900,"target":34963},{"buffer":0,"byteOffset":396168,"byteLength":864,"target":34963},{"buffer":0,"byteOffset":397032,"byteLength":11664,"target":34963},{"buffer":0,"byteOffset":408696,"byteLength":2064,"target":34963},{"buffer":0,"byteOffset":410760,"byteLength":1728,"target":34963},{"buffer":0,"byteOffset":412488,"byteLength":3900,"target":34963},{"buffer":0,"byteOffset":416388,"byteLength":7728,"target":34963},{"buffer":0,"byteOffset":424116,"byteLength":39048,"target":34963},{"buffer":0,"byteOffset":463164,"byteLength":3900,"target":34963}],"buffers":[{"byteLength":467064,"uri":"data:application/octet-stream;base64,"}],"accessors":[{"bufferView":0,"componentType":5126,"count":14188,"max":[4.496667385101318,0.722470760345459,4.597670078277588],"min":[-4.337408065795898,-0.11028574407100677,-4.402904510498047],"type":"VEC3"},{"bufferView":1,"componentType":5126,"count":14188,"max":[0.999969482421875,0.999908447265625,0.99981689453125],"min":[-0.99993896484375,-0.99981689453125,-0.99981689453125],"type":"VEC3"},{"bufferView":2,"componentType":5123,"count":1032,"max":[173],"min":[0],"type":"SCALAR"},{"bufferView":3,"componentType":5123,"count":1950,"max":[498],"min":[174],"type":"SCALAR"},{"bufferView":4,"componentType":5123,"count":5832,"max":[2426],"min":[499],"type":"SCALAR"},{"bufferView":5,"componentType":5123,"count":966,"max":[2635],"min":[2427],"type":"SCALAR"},{"bufferView":6,"componentType":5123,"count":1032,"max":[2809],"min":[2636],"type":"SCALAR"},{"bufferView":7,"componentType":5123,"count":432,"max":[2955],"min":[2810],"type":"SCALAR"},{"bufferView":8,"componentType":5123,"count":1032,"max":[3129],"min":[2956],"type":"SCALAR"},{"bufferView":9,"componentType":5123,"count":2904,"max":[4097],"min":[3130],"type":"SCALAR"},{"bufferView":10,"componentType":5123,"count":1032,"max":[4271],"min":[4098],"type":"SCALAR"},{"bufferView":11,"componentType":5123,"count":1830,"max":[4772],"min":[4272],"type":"SCALAR"},{"bufferView":12,"componentType":5123,"count":1032,"max":[4946],"min":[4773],"type":"SCALAR"},{"bufferView":13,"componentType":5123,"count":1950,"max":[5271],"min":[4947],"type":"SCALAR"},{"bufferView":14,"componentType":5123,"count":1950,"max":[5596],"min":[5272],"type":"SCALAR"},{"bufferView":15,"componentType":5123,"count":2904,"max":[6564],"min":[5597],"type":"SCALAR"},{"bufferView":16,"componentType":5123,"count":1950,"max":[6889],"min":[6565],"type":"SCALAR"},{"bufferView":17,"componentType":5123,"count":432,"max":[7035],"min":[6890],"type":"SCALAR"},{"bufferView":18,"componentType":5123,"count":5832,"max":[8963],"min":[7036],"type":"SCALAR"},{"bufferView":19,"componentType":5123,"count":1032,"max":[9137],"min":[8964],"type":"SCALAR"},{"bufferView":20,"componentType":5123,"count":864,"max":[9429],"min":[9138],"type":"SCALAR"},{"bufferView":21,"componentType":5123,"count":1950,"max":[9754],"min":[9430],"type":"SCALAR"},{"bufferView":22,"componentType":5123,"count":3864,"max":[10590],"min":[9755],"type":"SCALAR"},{"bufferView":23,"componentType":5123,"count":19524,"max":[13862],"min":[10591],"type":"SCALAR"},{"bufferView":24,"componentType":5123,"count":1950,"max":[14187],"min":[13863],"type":"SCALAR"}],"materials":[{"pbrMetallicRoughness":{"baseColorFactor":[0.4,0.4,0.4,1],"metallicFactor":0.5,"roughnessFactor":0.5},"name":"Material.003"},{"pbrMetallicRoughness":{"baseColorFactor":[0,1,0,1],"metallicFactor":0.5,"roughnessFactor":0.5},"name":"Material.002"},{"pbrMetallicRoughness":{"baseColorFactor":[0.17647058823529413,0.17647058823529413,0.17647058823529413,1],"metallicFactor":0.5,"roughnessFactor":0.5},"name":"Material.001"},{"pbrMetallicRoughness":{"baseColorFactor":[0,0.4470588235294118,0.6392156862745098,1],"metallicFactor":0.5,"roughnessFactor":0.5},"name":"Material.004"},{"pbrMetallicRoughness":{"baseColorFactor":[1,0,0,1],"metallicFactor":0.5,"roughnessFactor":0.5},"name":"Material.005"}],"meshes":[{"primitives":[{"mode":4,"attributes":{"POSITION":0,"NORMAL":1},"indices":2,"material":0},{"mode":4,"attributes":{"POSITION":0,"NORMAL":1},"indices":3,"material":1},{"mode":4,"attributes":{"POSITION":0,"NORMAL":1},"indices":4,"material":2},{"mode":4,"attributes":{"POSITION":0,"NORMAL":1},"indices":5,"material":3},{"mode":4,"attributes":{"POSITION":0,"NORMAL":1},"indices":6,"material":0},{"mode":4,"attributes":{"POSITION":0,"NORMAL":1},"indices":7,"material":3},{"mode":4,"attributes":{"POSITION":0,"NORMAL":1},"indices":8,"material":0},{"mode":4,"attributes":{"POSITION":0,"NORMAL":1},"indices":9,"material":2},{"mode":4,"attributes":{"POSITION":0,"NORMAL":1},"indices":10,"material":0},{"mode":4,"attributes":{"POSITION":0,"NORMAL":1},"indices":11,"material":3},{"mode":4,"attributes":{"POSITION":0,"NORMAL":1},"indices":12,"material":0},{"mode":4,"attributes":{"POSITION":0,"NORMAL":1},"indices":13,"material":1},{"mode":4,"attributes":{"POSITION":0,"NORMAL":1},"indices":14,"material":4},{"mode":4,"attributes":{"POSITION":0,"NORMAL":1},"indices":15,"material":2},{"mode":4,"attributes":{"POSITION":0,"NORMAL":1},"indices":16,"material":1},{"mode":4,"attributes":{"POSITION":0,"NORMAL":1},"indices":17,"material":3},{"mode":4,"attributes":{"POSITION":0,"NORMAL":1},"indices":18,"material":2},{"mode":4,"attributes":{"POSITION":0,"NORMAL":1},"indices":19,"material":0},{"mode":4,"attributes":{"POSITION":0,"NORMAL":1},"indices":20,"material":3},{"mode":4,"attributes":{"POSITION":0,"NORMAL":1},"indices":21,"material":1},{"mode":4,"attributes":{"POSITION":0,"NORMAL":1},"indices":22,"material":3},{"mode":4,"attributes":{"POSITION":0,"NORMAL":1},"indices":23,"material":1},{"mode":4,"attributes":{"POSITION":0,"NORMAL":1},"indices":24,"material":4}]}]}