{
    "asset" : {
        "generator" : "Khronos glTF Blender I/O v1.1.46",
        "version" : "2.0"
    },
    "scene" : 0,
    "scenes" : [
        {
            "name" : "Scene",
            "nodes" : [
                0
            ]
        }
    ],
    "nodes" : [
        {
            "mesh" : 0,
            "name" : "hex_x"
        }
    ],
    "materials" : [
        {
            "emissiveFactor" : [
                0,
                0,
                0
            ],
            "name" : "Material.003",
            "pbrMetallicRoughness" : {
                "baseColorFactor" : [
                    0.4000000059604645,
                    0.4000000059604645,
                    0.4000000059604645,
                    1
                ],
                "metallicFactor" : 0.5,
                "roughnessFactor" : 0.5
            }
        },
        {
            "emissiveFactor" : [
                0,
                0,
                0
            ],
            "name" : "Material.002",
            "pbrMetallicRoughness" : {
                "baseColorFactor" : [
                    0,
                    1,
                    0,
                    1
                ],
                "metallicFactor" : 0.5,
                "roughnessFactor" : 0.5
            }
        },
        {
            "emissiveFactor" : [
                0,
                0,
                0
            ],
            "name" : "Material.001",
            "pbrMetallicRoughness" : {
                "baseColorFactor" : [
                    0.1764705926179886,
                    0.1764705926179886,
                    0.1764705926179886,
                    1
                ],
                "metallicFactor" : 0.5,
                "roughnessFactor" : 0.5
            }
        },
        {
            "emissiveFactor" : [
                0,
                0,
                0
            ],
            "name" : "Material.004",
            "pbrMetallicRoughness" : {
                "baseColorFactor" : [
                    0,
                    0.4470588266849518,
                    0.6392157077789307,
                    1
                ],
                "metallicFactor" : 0.5,
                "roughnessFactor" : 0.5
            }
        },
        {
            "emissiveFactor" : [
                0,
                0,
                0
            ],
            "name" : "Material.005",
            "pbrMetallicRoughness" : {
                "baseColorFactor" : [
                    1,
                    0,
                    0,
                    1
                ],
                "metallicFactor" : 0.5,
                "roughnessFactor" : 0.5
            }
        }
    ],
    "meshes" : [
        {
            "name" : "Mesh_0",
            "primitives" : [
                {
                    "attributes" : {
                        "POSITION" : 0,
                        "NORMAL" : 1
                    },
                    "indices" : 2,
                    "material" : 0
                },
                {
                    "attributes" : {
                        "POSITION" : 3,
                        "NORMAL" : 4
                    },
                    "indices" : 5,
                    "material" : 1
                },
                {
                    "attributes" : {
                        "POSITION" : 6,
                        "NORMAL" : 7
                    },
                    "indices" : 8,
                    "material" : 2
                },
                {
                    "attributes" : {
                        "POSITION" : 9,
                        "NORMAL" : 10
                    },
                    "indices" : 11,
                    "material" : 3
                },
                {
                    "attributes" : {
                        "POSITION" : 12,
                        "NORMAL" : 13
                    },
                    "indices" : 14,
                    "material" : 4
                }
            ]
        }
    ],
    "accessors" : [
        {
            "bufferView" : 0,
            "componentType" : 5126,
            "count" : 1044,
            "max" : [
                0.4759826958179474,
                0.019709501415491104,
                0.4681641757488251
            ],
            "min" : [
                -0.466707706451416,
                -0.008246582932770252,
                -0.3859791159629822
            ],
            "type" : "VEC3"
        },
        {
            "bufferView" : 1,
            "componentType" : 5126,
            "count" : 1044,
            "type" : "VEC3"
        },
        {
            "bufferView" : 2,
            "componentType" : 5123,
            "count" : 6192,
            "type" : "SCALAR"
        },
        {
            "bufferView" : 3,
            "componentType" : 5126,
            "count" : 4572,
            "max" : [
                0.49755150079727173,
                0.07994066923856735,
                0.2776950001716614
            ],
            "min" : [
                -0.4799296259880066,
                0.0240558460354805,
                -0.4871768057346344
            ],
            "type" : "VEC3"
        },
        {
            "bufferView" : 4,
            "componentType" : 5126,
            "count" : 4572,
            "type" : "VEC3"
        },
        {
            "bufferView" : 5,
            "componentType" : 5123,
            "count" : 27324,
            "type" : "SCALAR"
        },
        {
            "bufferView" : 6,
            "componentType" : 5126,
            "count" : 5792,
            "max" : [
                0.19888824224472046,
                0.0778069719672203,
                0.28693610429763794
            ],
            "min" : [
                -0.20128002762794495,
                -0.012203041464090347,
                -0.2970544695854187
            ],
            "type" : "VEC3"
        },
        {
            "bufferView" : 7,
            "componentType" : 5126,
            "count" : 5792,
            "type" : "VEC3"
        },
        {
            "bufferView" : 8,
            "componentType" : 5123,
            "count" : 17472,
            "type" : "SCALAR"
        },
        {
            "bufferView" : 9,
            "componentType" : 5126,
            "count" : 2130,
            "max" : [
                0.4628450870513916,
                0.07631588727235794,
                0.4574680030345917
            ],
            "min" : [
                -0.4560932219028473,
                0.0015788031741976738,
                -0.37869060039520264
            ],
            "type" : "VEC3"
        },
        {
            "bufferView" : 10,
            "componentType" : 5126,
            "count" : 2130,
            "type" : "VEC3"
        },
        {
            "bufferView" : 11,
            "componentType" : 5123,
            "count" : 8388,
            "type" : "SCALAR"
        },
        {
            "bufferView" : 12,
            "componentType" : 5126,
            "count" : 650,
            "max" : [
                0.3576851189136505,
                0.051633261144161224,
                0.5087274312973022
            ],
            "min" : [
                -0.3643076419830322,
                0.03126240149140358,
                0.2892119884490967
            ],
            "type" : "VEC3"
        },
        {
            "bufferView" : 13,
            "componentType" : 5126,
            "count" : 650,
            "type" : "VEC3"
        },
        {
            "bufferView" : 14,
            "componentType" : 5123,
            "count" : 3900,
            "type" : "SCALAR"
        }
    ],
    "bufferViews" : [
        {
            "buffer" : 0,
            "byteLength" : 12528,
            "byteOffset" : 0
        },
        {
            "buffer" : 0,
            "byteLength" : 12528,
            "byteOffset" : 12528
        },
        {
            "buffer" : 0,
            "byteLength" : 12384,
            "byteOffset" : 25056
        },
        {
            "buffer" : 0,
            "byteLength" : 54864,
            "byteOffset" : 37440
        },
        {
            "buffer" : 0,
            "byteLength" : 54864,
            "byteOffset" : 92304
        },
        {
            "buffer" : 0,
            "byteLength" : 54648,
            "byteOffset" : 147168
        },
        {
            "buffer" : 0,
            "byteLength" : 69504,
            "byteOffset" : 201816
        },
        {
            "buffer" : 0,
            "byteLength" : 69504,
            "byteOffset" : 271320
        },
        {
            "buffer" : 0,
            "byteLength" : 34944,
            "byteOffset" : 340824
        },
        {
            "buffer" : 0,
            "byteLength" : 25560,
            "byteOffset" : 375768
        },
        {
            "buffer" : 0,
            "byteLength" : 25560,
            "byteOffset" : 401328
        },
        {
            "buffer" : 0,
            "byteLength" : 16776,
            "byteOffset" : 426888
        },
        {
            "buffer" : 0,
            "byteLength" : 7800,
            "byteOffset" : 443664
        },
        {
            "buffer" : 0,
            "byteLength" : 7800,
            "byteOffset" : 451464
        },
        {
            "buffer" : 0,
            "byteLength" : 7800,
            "byteOffset" : 459264
        }
    ],
    "buffers" : [
        {
            "byteLength" : 467064,
            "uri" : "data:application/octet-stream;base64,"
        }
    ]
}
