{
    "asset" : {
        "generator" : "Khronos glTF Blender I/O v1.1.46",
        "version" : "2.0"
    },
    "scene" : 0,
    "scenes" : [
        {
            "name" : "Scene",
            "nodes" : [
                0
            ]
        }
    ],
    "nodes" : [
        {
            "mesh" : 0,
            "name" : "hex+"
        }
    ],
    "materials" : [
        {
            "emissiveFactor" : [
                0,
                0,
                0
            ],
            "name" : "Material.002",
            "pbrMetallicRoughness" : {
                "baseColorFactor" : [
                    0,
                    0.7156831622123718,
                    1,
                    1
                ],
                "metallicFactor" : 0.5,
                "roughnessFactor" : 0.5
            }
        },
        {
            "emissiveFactor" : [
                0,
                0,
                0
            ],
            "name" : "Material.003",
            "pbrMetallicRoughness" : {
                "baseColorFactor" : [
                    0.4000000059604645,
                    0.4000000059604645,
                    0.4000000059604645,
                    1
                ],
                "metallicFactor" : 0.5,
                "roughnessFactor" : 0.5
            }
        },
        {
            "emissiveFactor" : [
                0,
                0,
                0
            ],
            "name" : "Material.004",
            "pbrMetallicRoughness" : {
                "baseColorFactor" : [
                    0.005700832698494196,
                    0.004546416457742453,
                    0.6392157673835754,
                    1
                ],
                "metallicFactor" : 0.5,
                "roughnessFactor" : 0.5
            }
        },
        {
            "emissiveFactor" : [
                0,
                0,
                0
            ],
            "name" : "Material.005",
            "pbrMetallicRoughness" : {
                "baseColorFactor" : [
                    0.01413710881024599,
                    1,
                    0,
                    1
                ],
                "metallicFactor" : 0.5,
                "roughnessFactor" : 0.5
            }
        },
        {
            "emissiveFactor" : [
                0,
                0,
                0
            ],
            "name" : "Material.001",
            "pbrMetallicRoughness" : {
                "baseColorFactor" : [
                    0.1764705926179886,
                    0.1764705926179886,
                    0.1764705926179886,
                    1
                ],
                "metallicFactor" : 0.5,
                "roughnessFactor" : 0.5
            }
        }
    ],
    "meshes" : [
        {
            "name" : "green1",
            "primitives" : [
                {
                    "attributes" : {
                        "POSITION" : 0,
                        "NORMAL" : 1,
                        "TEXCOORD_0" : 2
                    },
                    "indices" : 3,
                    "material" : 0
                },
                {
                    "attributes" : {
                        "POSITION" : 4,
                        "NORMAL" : 5,
                        "TEXCOORD_0" : 6
                    },
                    "indices" : 7,
                    "material" : 1
                },
                {
                    "attributes" : {
                        "POSITION" : 8,
                        "NORMAL" : 9,
                        "TEXCOORD_0" : 10
                    },
                    "indices" : 11,
                    "material" : 2
                },
                {
                    "attributes" : {
                        "POSITION" : 12,
                        "NORMAL" : 13,
                        "TEXCOORD_0" : 14
                    },
                    "indices" : 15,
                    "material" : 3
                },
                {
                    "attributes" : {
                        "POSITION" : 16,
                        "NORMAL" : 17,
                        "TEXCOORD_0" : 18
                    },
                    "indices" : 19,
                    "material" : 4
                }
            ]
        }
    ],
    "accessors" : [
        {
            "bufferView" : 0,
            "componentType" : 5126,
            "count" : 975,
            "max" : [
                0.502357006072998,
                0.0610123872756958,
                0.4585334062576294
            ],
            "min" : [
                -0.4772505462169647,
                0.04072762280702591,
                -0.41816532611846924
            ],
            "type" : "VEC3"
        },
        {
            "bufferView" : 1,
            "componentType" : 5126,
            "count" : 975,
            "type" : "VEC3"
        },
        {
            "bufferView" : 2,
            "componentType" : 5126,
            "count" : 975,
            "type" : "VEC2"
        },
        {
            "bufferView" : 3,
            "componentType" : 5123,
            "count" : 5850,
            "type" : "SCALAR"
        },
        {
            "bufferView" : 4,
            "componentType" : 5126,
            "count" : 1140,
            "max" : [
                0.43794599175453186,
                0.009625391103327274,
                0.4960833489894867
            ],
            "min" : [
                -0.4362664520740509,
                -0.009210510179400444,
                -0.4960833489894867
            ],
            "type" : "VEC3"
        },
        {
            "bufferView" : 5,
            "componentType" : 5126,
            "count" : 1140,
            "type" : "VEC3"
        },
        {
            "bufferView" : 6,
            "componentType" : 5126,
            "count" : 1140,
            "type" : "VEC2"
        },
        {
            "bufferView" : 7,
            "componentType" : 5123,
            "count" : 6372,
            "type" : "SCALAR"
        },
        {
            "bufferView" : 8,
            "componentType" : 5126,
            "count" : 1710,
            "max" : [
                0.42616719007492065,
                0.06536710262298584,
                0.48309504985809326
            ],
            "min" : [
                -0.4234589636325836,
                -0.005776701960712671,
                -0.48309504985809326
            ],
            "type" : "VEC3"
        },
        {
            "bufferView" : 9,
            "componentType" : 5126,
            "count" : 1710,
            "type" : "VEC3"
        },
        {
            "bufferView" : 10,
            "componentType" : 5126,
            "count" : 1710,
            "type" : "VEC2"
        },
        {
            "bufferView" : 11,
            "componentType" : 5123,
            "count" : 6444,
            "type" : "SCALAR"
        },
        {
            "bufferView" : 12,
            "componentType" : 5126,
            "count" : 1021,
            "max" : [
                0.502357006072998,
                0.0610123872756958,
                0.4181653559207916
            ],
            "min" : [
                -0.47725048661231995,
                0.01770278625190258,
                -0.4585334062576294
            ],
            "type" : "VEC3"
        },
        {
            "bufferView" : 13,
            "componentType" : 5126,
            "count" : 1021,
            "type" : "VEC3"
        },
        {
            "bufferView" : 14,
            "componentType" : 5126,
            "count" : 1021,
            "type" : "VEC2"
        },
        {
            "bufferView" : 15,
            "componentType" : 5123,
            "count" : 5946,
            "type" : "SCALAR"
        },
        {
            "bufferView" : 16,
            "componentType" : 5126,
            "count" : 9359,
            "max" : [
                0.22985230386257172,
                0.015141245909035206,
                0.243753120303154
            ],
            "min" : [
                -0.2281734049320221,
                -0.010326412506401539,
                -0.243753120303154
            ],
            "type" : "VEC3"
        },
        {
            "bufferView" : 17,
            "componentType" : 5126,
            "count" : 9359,
            "type" : "VEC3"
        },
        {
            "bufferView" : 18,
            "componentType" : 5126,
            "count" : 9359,
            "type" : "VEC2"
        },
        {
            "bufferView" : 19,
            "componentType" : 5123,
            "count" : 17514,
            "type" : "SCALAR"
        }
    ],
    "bufferViews" : [
        {
            "buffer" : 0,
            "byteLength" : 11700,
            "byteOffset" : 0
        },
        {
            "buffer" : 0,
            "byteLength" : 11700,
            "byteOffset" : 11700
        },
        {
            "buffer" : 0,
            "byteLength" : 7800,
            "byteOffset" : 23400
        },
        {
            "buffer" : 0,
            "byteLength" : 11700,
            "byteOffset" : 31200
        },
        {
            "buffer" : 0,
            "byteLength" : 13680,
            "byteOffset" : 42900
        },
        {
            "buffer" : 0,
            "byteLength" : 13680,
            "byteOffset" : 56580
        },
        {
            "buffer" : 0,
            "byteLength" : 9120,
            "byteOffset" : 70260
        },
        {
            "buffer" : 0,
            "byteLength" : 12744,
            "byteOffset" : 79380
        },
        {
            "buffer" : 0,
            "byteLength" : 20520,
            "byteOffset" : 92124
        },
        {
            "buffer" : 0,
            "byteLength" : 20520,
            "byteOffset" : 112644
        },
        {
            "buffer" : 0,
            "byteLength" : 13680,
            "byteOffset" : 133164
        },
        {
            "buffer" : 0,
            "byteLength" : 12888,
            "byteOffset" : 146844
        },
        {
            "buffer" : 0,
            "byteLength" : 12252,
            "byteOffset" : 159732
        },
        {
            "buffer" : 0,
            "byteLength" : 12252,
            "byteOffset" : 171984
        },
        {
            "buffer" : 0,
            "byteLength" : 8168,
            "byteOffset" : 184236
        },
        {
            "buffer" : 0,
            "byteLength" : 11892,
            "byteOffset" : 192404
        },
        {
            "buffer" : 0,
            "byteLength" : 112308,
            "byteOffset" : 204296
        },
        {
            "buffer" : 0,
            "byteLength" : 112308,
            "byteOffset" : 316604
        },
        {
            "buffer" : 0,
            "byteLength" : 74872,
            "byteOffset" : 428912
        },
        {
            "buffer" : 0,
            "byteLength" : 35028,
            "byteOffset" : 503784
        }
    ],
    "buffers" : [
        {
            "byteLength" : 538812,
            "uri" : "data:application/octet-stream;base64,"
        }
    ]
}
