{
    "asset" : {
        "generator" : "Khronos glTF Blender I/O v1.1.46",
        "version" : "2.0"
    },
    "scene" : 0,
    "scenes" : [
        {
            "name" : "Scene",
            "nodes" : [
                0
            ]
        }
    ],
    "nodes" : [
        {
            "mesh" : 0,
            "name" : "octo-quad-x8"
        }
    ],
    "materials" : [
        {
            "emissiveFactor" : [
                0,
                0,
                0
            ],
            "name" : "Material.005",
            "pbrMetallicRoughness" : {
                "baseColorFactor" : [
                    0.01413710881024599,
                    1,
                    0,
                    1
                ],
                "metallicFactor" : 0.5,
                "roughnessFactor" : 0.5
            }
        },
        {
            "emissiveFactor" : [
                0,
                0,
                0
            ],
            "name" : "Material.002",
            "pbrMetallicRoughness" : {
                "baseColorFactor" : [
                    0,
                    0.7156831622123718,
                    1,
                    1
                ],
                "metallicFactor" : 0.5,
                "roughnessFactor" : 0.5
            }
        },
        {
            "emissiveFactor" : [
                0,
                0,
                0
            ],
            "name" : "Material.003",
            "pbrMetallicRoughness" : {
                "baseColorFactor" : [
                    0.4000000059604645,
                    0.4000000059604645,
                    0.4000000059604645,
                    1
                ],
                "metallicFactor" : 0.5,
                "roughnessFactor" : 0.5
            }
        },
        {
            "emissiveFactor" : [
                0,
                0,
                0
            ],
            "name" : "Material.004",
            "pbrMetallicRoughness" : {
                "baseColorFactor" : [
                    0.005700832698494196,
                    0.004546416457742453,
                    0.6392157673835754,
                    1
                ],
                "metallicFactor" : 0.5,
                "roughnessFactor" : 0.5
            }
        },
        {
            "emissiveFactor" : [
                0,
                0,
                0
            ],
            "name" : "Material.001",
            "pbrMetallicRoughness" : {
                "baseColorFactor" : [
                    0.1764705926179886,
                    0.1764705926179886,
                    0.1764705926179886,
                    1
                ],
                "metallicFactor" : 0.5,
                "roughnessFactor" : 0.5
            }
        },
        {
            "emissiveFactor" : [
                0,
                0,
                0
            ],
            "name" : "Material.009",
            "pbrMetallicRoughness" : {
                "baseColorFactor" : [
                    0,
                    0.7156831622123718,
                    1,
                    1
                ],
                "metallicFactor" : 0.5,
                "roughnessFactor" : 0.5
            }
        },
        {
            "emissiveFactor" : [
                0,
                0,
                0
            ],
            "name" : "Material.008",
            "pbrMetallicRoughness" : {
                "baseColorFactor" : [
                    0.4000000059604645,
                    0.4000000059604645,
                    0.4000000059604645,
                    1
                ],
                "metallicFactor" : 0.5,
                "roughnessFactor" : 0.5
            }
        },
        {
            "emissiveFactor" : [
                0,
                0,
                0
            ],
            "name" : "Material.007",
            "pbrMetallicRoughness" : {
                "baseColorFactor" : [
                    0.005700832698494196,
                    0.004546416457742453,
                    0.6392157673835754,
                    1
                ],
                "metallicFactor" : 0.5,
                "roughnessFactor" : 0.5
            }
        },
        {
            "emissiveFactor" : [
                0,
                0,
                0
            ],
            "name" : "Material.006",
            "pbrMetallicRoughness" : {
                "baseColorFactor" : [
                    0.01413710881024599,
                    1,
                    0,
                    1
                ],
                "metallicFactor" : 0.5,
                "roughnessFactor" : 0.5
            }
        },
        {
            "emissiveFactor" : [
                0,
                0,
                0
            ],
            "name" : "Material.010",
            "pbrMetallicRoughness" : {
                "baseColorFactor" : [
                    0.1764705926179886,
                    0.1764705926179886,
                    0.1764705926179886,
                    1
                ],
                "metallicFactor" : 0.5,
                "roughnessFactor" : 0.5
            }
        }
    ],
    "meshes" : [
        {
            "name" : "Plane",
            "primitives" : [
                {
                    "attributes" : {
                        "POSITION" : 0,
                        "NORMAL" : 1,
                        "TEXCOORD_0" : 2
                    },
                    "indices" : 3,
                    "material" : 0
                },
                {
                    "attributes" : {
                        "POSITION" : 4,
                        "NORMAL" : 5,
                        "TEXCOORD_0" : 6
                    },
                    "indices" : 7,
                    "material" : 1
                },
                {
                    "attributes" : {
                        "POSITION" : 8,
                        "NORMAL" : 9,
                        "TEXCOORD_0" : 10
                    },
                    "indices" : 11,
                    "material" : 2
                },
                {
                    "attributes" : {
                        "POSITION" : 12,
                        "NORMAL" : 13,
                        "TEXCOORD_0" : 14
                    },
                    "indices" : 15,
                    "material" : 3
                },
                {
                    "attributes" : {
                        "POSITION" : 16,
                        "NORMAL" : 17,
                        "TEXCOORD_0" : 18
                    },
                    "indices" : 19,
                    "material" : 4
                },
                {
                    "attributes" : {
                        "POSITION" : 20,
                        "NORMAL" : 21,
                        "TEXCOORD_0" : 22
                    },
                    "indices" : 7,
                    "material" : 5
                },
                {
                    "attributes" : {
                        "POSITION" : 23,
                        "NORMAL" : 24,
                        "TEXCOORD_0" : 25
                    },
                    "indices" : 26,
                    "material" : 6
                },
                {
                    "attributes" : {
                        "POSITION" : 27,
                        "NORMAL" : 28,
                        "TEXCOORD_0" : 29
                    },
                    "indices" : 30,
                    "material" : 7
                },
                {
                    "attributes" : {
                        "POSITION" : 31,
                        "NORMAL" : 32,
                        "TEXCOORD_0" : 33
                    },
                    "indices" : 34,
                    "material" : 8
                },
                {
                    "attributes" : {
                        "POSITION" : 35,
                        "NORMAL" : 36,
                        "TEXCOORD_0" : 37
                    },
                    "indices" : 38,
                    "material" : 9
                }
            ]
        }
    ],
    "accessors" : [
        {
            "bufferView" : 0,
            "componentType" : 5126,
            "count" : 688,
            "max" : [
                0.49968212842941284,
                0.07265501469373703,
                0.48404404520988464
            ],
            "min" : [
                -0.4976045489311218,
                0.027332544326782227,
                -0.46409595012664795
            ],
            "type" : "VEC3"
        },
        {
            "bufferView" : 1,
            "componentType" : 5126,
            "count" : 688,
            "type" : "VEC3"
        },
        {
            "bufferView" : 2,
            "componentType" : 5126,
            "count" : 688,
            "type" : "VEC2"
        },
        {
            "bufferView" : 3,
            "componentType" : 5123,
            "count" : 3996,
            "type" : "SCALAR"
        },
        {
            "bufferView" : 4,
            "componentType" : 5126,
            "count" : 650,
            "max" : [
                0.4996820092201233,
                0.07265501469373703,
                0.4840441942214966
            ],
            "min" : [
                -0.49760451912879944,
                0.05142749100923538,
                -0.46409595012664795
            ],
            "type" : "VEC3"
        },
        {
            "bufferView" : 5,
            "componentType" : 5126,
            "count" : 650,
            "type" : "VEC3"
        },
        {
            "bufferView" : 6,
            "componentType" : 5126,
            "count" : 650,
            "type" : "VEC2"
        },
        {
            "bufferView" : 7,
            "componentType" : 5123,
            "count" : 3900,
            "type" : "SCALAR"
        },
        {
            "bufferView" : 8,
            "componentType" : 5126,
            "count" : 792,
            "max" : [
                0.38619837164878845,
                0.018879741430282593,
                0.3916773498058319
            ],
            "min" : [
                -0.3841206729412079,
                -0.0008315813611261547,
                -0.3717289865016937
            ],
            "type" : "VEC3"
        },
        {
            "bufferView" : 9,
            "componentType" : 5126,
            "count" : 792,
            "type" : "VEC3"
        },
        {
            "bufferView" : 10,
            "componentType" : 5126,
            "count" : 792,
            "type" : "VEC2"
        },
        {
            "bufferView" : 11,
            "componentType" : 5123,
            "count" : 4308,
            "type" : "SCALAR"
        },
        {
            "bufferView" : 12,
            "componentType" : 5126,
            "count" : 1132,
            "max" : [
                0.37524911761283875,
                0.0772121250629425,
                0.3801833391189575
            ],
            "min" : [
                -0.37317144870758057,
                0.0027618170715868473,
                -0.3602350056171417
            ],
            "type" : "VEC3"
        },
        {
            "bufferView" : 13,
            "componentType" : 5126,
            "count" : 1132,
            "type" : "VEC3"
        },
        {
            "bufferView" : 14,
            "componentType" : 5126,
            "count" : 1132,
            "type" : "VEC2"
        },
        {
            "bufferView" : 15,
            "componentType" : 5123,
            "count" : 4296,
            "type" : "SCALAR"
        },
        {
            "bufferView" : 16,
            "componentType" : 5126,
            "count" : 5953,
            "max" : [
                0.21012239158153534,
                0.02465195395052433,
                0.21604064106941223
            ],
            "min" : [
                -0.2080448418855667,
                -0.001999347470700741,
                -0.196092426776886
            ],
            "type" : "VEC3"
        },
        {
            "bufferView" : 17,
            "componentType" : 5126,
            "count" : 5953,
            "type" : "VEC3"
        },
        {
            "bufferView" : 18,
            "componentType" : 5126,
            "count" : 5953,
            "type" : "VEC2"
        },
        {
            "bufferView" : 19,
            "componentType" : 5123,
            "count" : 11676,
            "type" : "SCALAR"
        },
        {
            "bufferView" : 20,
            "componentType" : 5126,
            "count" : 650,
            "max" : [
                0.4988041818141937,
                -0.035512153059244156,
                0.4814739525318146
            ],
            "min" : [
                -0.4984823167324066,
                -0.05673971399664879,
                -0.46666622161865234
            ],
            "type" : "VEC3"
        },
        {
            "bufferView" : 21,
            "componentType" : 5126,
            "count" : 650,
            "type" : "VEC3"
        },
        {
            "bufferView" : 22,
            "componentType" : 5126,
            "count" : 650,
            "type" : "VEC2"
        },
        {
            "bufferView" : 23,
            "componentType" : 5126,
            "count" : 792,
            "max" : [
                0.38532036542892456,
                0.016746990382671356,
                0.3891070783138275
            ],
            "min" : [
                -0.3849986493587494,
                -0.002964569954201579,
                -0.37429922819137573
            ],
            "type" : "VEC3"
        },
        {
            "bufferView" : 24,
            "componentType" : 5126,
            "count" : 792,
            "type" : "VEC3"
        },
        {
            "bufferView" : 25,
            "componentType" : 5126,
            "count" : 792,
            "type" : "VEC2"
        },
        {
            "bufferView" : 26,
            "componentType" : 5123,
            "count" : 4308,
            "type" : "SCALAR"
        },
        {
            "bufferView" : 27,
            "componentType" : 5126,
            "count" : 1130,
            "max" : [
                0.37437117099761963,
                0.013153577223420143,
                0.3776130676269531
            ],
            "min" : [
                -0.37404942512512207,
                -0.061296943575143814,
                -0.3628052771091461
            ],
            "type" : "VEC3"
        },
        {
            "bufferView" : 28,
            "componentType" : 5126,
            "count" : 1130,
            "type" : "VEC3"
        },
        {
            "bufferView" : 29,
            "componentType" : 5126,
            "count" : 1130,
            "type" : "VEC2"
        },
        {
            "bufferView" : 30,
            "componentType" : 5123,
            "count" : 4296,
            "type" : "SCALAR"
        },
        {
            "bufferView" : 31,
            "componentType" : 5126,
            "count" : 650,
            "max" : [
                0.4988042414188385,
                -0.035512007772922516,
                0.48147377371788025
            ],
            "min" : [
                -0.49848243594169617,
                -0.05673982948064804,
                -0.46666622161865234
            ],
            "type" : "VEC3"
        },
        {
            "bufferView" : 32,
            "componentType" : 5126,
            "count" : 650,
            "type" : "VEC3"
        },
        {
            "bufferView" : 33,
            "componentType" : 5126,
            "count" : 650,
            "type" : "VEC2"
        },
        {
            "bufferView" : 34,
            "componentType" : 5123,
            "count" : 3900,
            "type" : "SCALAR"
        },
        {
            "bufferView" : 35,
            "componentType" : 5126,
            "count" : 6101,
            "max" : [
                0.20924454927444458,
                0.017914747819304466,
                0.21347036957740784
            ],
            "min" : [
                -0.20892268419265747,
                -0.008736697025597095,
                -0.1986626833677292
            ],
            "type" : "VEC3"
        },
        {
            "bufferView" : 36,
            "componentType" : 5126,
            "count" : 6101,
            "type" : "VEC3"
        },
        {
            "bufferView" : 37,
            "componentType" : 5126,
            "count" : 6101,
            "type" : "VEC2"
        },
        {
            "bufferView" : 38,
            "componentType" : 5123,
            "count" : 11676,
            "type" : "SCALAR"
        }
    ],
    "bufferViews" : [
        {
            "buffer" : 0,
            "byteLength" : 8256,
            "byteOffset" : 0
        },
        {
            "buffer" : 0,
            "byteLength" : 8256,
            "byteOffset" : 8256
        },
        {
            "buffer" : 0,
            "byteLength" : 5504,
            "byteOffset" : 16512
        },
        {
            "buffer" : 0,
            "byteLength" : 7992,
            "byteOffset" : 22016
        },
        {
            "buffer" : 0,
            "byteLength" : 7800,
            "byteOffset" : 30008
        },
        {
            "buffer" : 0,
            "byteLength" : 7800,
            "byteOffset" : 37808
        },
        {
            "buffer" : 0,
            "byteLength" : 5200,
            "byteOffset" : 45608
        },
        {
            "buffer" : 0,
            "byteLength" : 7800,
            "byteOffset" : 50808
        },
        {
            "buffer" : 0,
            "byteLength" : 9504,
            "byteOffset" : 58608
        },
        {
            "buffer" : 0,
            "byteLength" : 9504,
            "byteOffset" : 68112
        },
        {
            "buffer" : 0,
            "byteLength" : 6336,
            "byteOffset" : 77616
        },
        {
            "buffer" : 0,
            "byteLength" : 8616,
            "byteOffset" : 83952
        },
        {
            "buffer" : 0,
            "byteLength" : 13584,
            "byteOffset" : 92568
        },
        {
            "buffer" : 0,
            "byteLength" : 13584,
            "byteOffset" : 106152
        },
        {
            "buffer" : 0,
            "byteLength" : 9056,
            "byteOffset" : 119736
        },
        {
            "buffer" : 0,
            "byteLength" : 8592,
            "byteOffset" : 128792
        },
        {
            "buffer" : 0,
            "byteLength" : 71436,
            "byteOffset" : 137384
        },
        {
            "buffer" : 0,
            "byteLength" : 71436,
            "byteOffset" : 208820
        },
        {
            "buffer" : 0,
            "byteLength" : 47624,
            "byteOffset" : 280256
        },
        {
            "buffer" : 0,
            "byteLength" : 23352,
            "byteOffset" : 327880
        },
        {
            "buffer" : 0,
            "byteLength" : 7800,
            "byteOffset" : 351232
        },
        {
            "buffer" : 0,
            "byteLength" : 7800,
            "byteOffset" : 359032
        },
        {
            "buffer" : 0,
            "byteLength" : 5200,
            "byteOffset" : 366832
        },
        {
            "buffer" : 0,
            "byteLength" : 9504,
            "byteOffset" : 372032
        },
        {
            "buffer" : 0,
            "byteLength" : 9504,
            "byteOffset" : 381536
        },
        {
            "buffer" : 0,
            "byteLength" : 6336,
            "byteOffset" : 391040
        },
        {
            "buffer" : 0,
            "byteLength" : 8616,
            "byteOffset" : 397376
        },
        {
            "buffer" : 0,
            "byteLength" : 13560,
            "byteOffset" : 405992
        },
        {
            "buffer" : 0,
            "byteLength" : 13560,
            "byteOffset" : 419552
        },
        {
            "buffer" : 0,
            "byteLength" : 9040,
            "byteOffset" : 433112
        },
        {
            "buffer" : 0,
            "byteLength" : 8592,
            "byteOffset" : 442152
        },
        {
            "buffer" : 0,
            "byteLength" : 7800,
            "byteOffset" : 450744
        },
        {
            "buffer" : 0,
            "byteLength" : 7800,
            "byteOffset" : 458544
        },
        {
            "buffer" : 0,
            "byteLength" : 5200,
            "byteOffset" : 466344
        },
        {
            "buffer" : 0,
            "byteLength" : 7800,
            "byteOffset" : 471544
        },
        {
            "buffer" : 0,
            "byteLength" : 73212,
            "byteOffset" : 479344
        },
        {
            "buffer" : 0,
            "byteLength" : 73212,
            "byteOffset" : 552556
        },
        {
            "buffer" : 0,
            "byteLength" : 48808,
            "byteOffset" : 625768
        },
        {
            "buffer" : 0,
            "byteLength" : 23352,
            "byteOffset" : 674576
        }
    ],
    "buffers" : [
        {
            "byteLength" : 697928,
            "uri" : "data:application/octet-stream;base64,"
        }
    ]
}
