{"asset":{"version":"2.0","generator":"THREE.GLTFExporter"},"scenes":[{"nodes":[0],"name":"AuxScene"}],"scene":0,"nodes":[{"mesh":0}],"bufferViews":[{"buffer":0,"byteOffset":0,"byteLength":119520,"target":34962,"byteStride":12},{"buffer":0,"byteOffset":119520,"byteLength":119520,"target":34962,"byteStride":12},{"buffer":0,"byteOffset":239040,"byteLength":1932,"target":34963},{"buffer":0,"byteOffset":240972,"byteLength":2064,"target":34963},{"buffer":0,"byteOffset":243036,"byteLength":3900,"target":34963},{"buffer":0,"byteOffset":246936,"byteLength":1932,"target":34963},{"buffer":0,"byteOffset":248868,"byteLength":4128,"target":34963},{"buffer":0,"byteOffset":252996,"byteLength":11664,"target":34963},{"buffer":0,"byteOffset":264660,"byteLength":2064,"target":34963},{"buffer":0,"byteOffset":266724,"byteLength":11664,"target":34963},{"buffer":0,"byteOffset":278388,"byteLength":42948,"target":34963},{"buffer":0,"byteOffset":321336,"byteLength":3864,"target":34963},{"buffer":0,"byteOffset":325200,"byteLength":3900,"target":34963},{"buffer":0,"byteOffset":329100,"byteLength":3900,"target":34963}],"buffers":[{"byteLength":333000,"uri":"data:application/octet-stream;base64,"}],"accessors":[{"bufferView":0,"componentType":5126,"count":9960,"max":[4.172992706298828,0.594504714012146,3.9006199836730957],"min":[-4.049135208129883,-0.13246047496795654,-3.2495193481445312],"type":"VEC3"},{"bufferView":1,"componentType":5126,"count":9960,"max":[0.999969482421875,1,1],"min":[-0.999969482421875,-1,-1],"type":"VEC3"},{"bufferView":2,"componentType":5123,"count":966,"max":[208],"min":[0],"type":"SCALAR"},{"bufferView":3,"componentType":5123,"count":1032,"max":[382],"min":[209],"type":"SCALAR"},{"bufferView":4,"componentType":5123,"count":1950,"max":[707],"min":[383],"type":"SCALAR"},{"bufferView":5,"componentType":5123,"count":966,"max":[916],"min":[708],"type":"SCALAR"},{"bufferView":6,"componentType":5123,"count":2064,"max":[1264],"min":[917],"type":"SCALAR"},{"bufferView":7,"componentType":5123,"count":5832,"max":[3192],"min":[1265],"type":"SCALAR"},{"bufferView":8,"componentType":5123,"count":1032,"max":[3366],"min":[3193],"type":"SCALAR"},{"bufferView":9,"componentType":5123,"count":5832,"max":[5294],"min":[3367],"type":"SCALAR"},{"bufferView":10,"componentType":5123,"count":21474,"max":[8891],"min":[5295],"type":"SCALAR"},{"bufferView":11,"componentType":5123,"count":1932,"max":[9309],"min":[8892],"type":"SCALAR"},{"bufferView":12,"componentType":5123,"count":1950,"max":[9634],"min":[9310],"type":"SCALAR"},{"bufferView":13,"componentType":5123,"count":1950,"max":[9959],"min":[9635],"type":"SCALAR"}],"materials":[{"pbrMetallicRoughness":{"baseColorFactor":[0,0.4470588235294118,0.6392156862745098,1],"metallicFactor":0.5,"roughnessFactor":0.5},"name":"Material.004"},{"pbrMetallicRoughness":{"baseColorFactor":[0.4,0.4,0.4,1],"metallicFactor":0.5,"roughnessFactor":0.5},"name":"Material.003"},{"pbrMetallicRoughness":{"baseColorFactor":[1,0,0,1],"metallicFactor":0.5,"roughnessFactor":0.5},"name":"Material.005"},{"pbrMetallicRoughness":{"baseColorFactor":[0.17647058823529413,0.17647058823529413,0.17647058823529413,1],"metallicFactor":0.5,"roughnessFactor":0.5},"name":"Material.001"},{"pbrMetallicRoughness":{"baseColorFactor":[0,1,0,1],"metallicFactor":0.5,"roughnessFactor":0.5},"name":"Material.002"}],"meshes":[{"primitives":[{"mode":4,"attributes":{"POSITION":0,"NORMAL":1},"indices":2,"material":0},{"mode":4,"attributes":{"POSITION":0,"NORMAL":1},"indices":3,"material":1},{"mode":4,"attributes":{"POSITION":0,"NORMAL":1},"indices":4,"material":2},{"mode":4,"attributes":{"POSITION":0,"NORMAL":1},"indices":5,"material":0},{"mode":4,"attributes":{"POSITION":0,"NORMAL":1},"indices":6,"material":1},{"mode":4,"attributes":{"POSITION":0,"NORMAL":1},"indices":7,"material":3},{"mode":4,"attributes":{"POSITION":0,"NORMAL":1},"indices":8,"material":1},{"mode":4,"attributes":{"POSITION":0,"NORMAL":1},"indices":9,"material":3},{"mode":4,"attributes":{"POSITION":0,"NORMAL":1},"indices":10,"material":4},{"mode":4,"attributes":{"POSITION":0,"NORMAL":1},"indices":11,"material":0},{"mode":4,"attributes":{"POSITION":0,"NORMAL":1},"indices":12,"material":2},{"mode":4,"attributes":{"POSITION":0,"NORMAL":1},"indices":13,"material":4}]}]}