{"asset":{"version":"2.0","generator":"THREE.GLTFExporter"},"scenes":[{"nodes":[0],"name":"AuxScene"}],"scene":0,"nodes":[{"mesh":0}],"bufferViews":[{"buffer":0,"byteOffset":0,"byteLength":213060,"target":34962,"byteStride":12},{"buffer":0,"byteOffset":213060,"byteLength":213060,"target":34962,"byteStride":12},{"buffer":0,"byteOffset":426120,"byteLength":3864,"target":34963},{"buffer":0,"byteOffset":429984,"byteLength":3900,"target":34963},{"buffer":0,"byteOffset":433884,"byteLength":2064,"target":34963},{"buffer":0,"byteOffset":435948,"byteLength":1932,"target":34963},{"buffer":0,"byteOffset":437880,"byteLength":39048,"target":34963},{"buffer":0,"byteOffset":476928,"byteLength":2064,"target":34963},{"buffer":0,"byteOffset":478992,"byteLength":102288,"target":34963},{"buffer":0,"byteOffset":581280,"byteLength":2088,"target":34963},{"buffer":0,"byteOffset":583368,"byteLength":11664,"target":34963},{"buffer":0,"byteOffset":595032,"byteLength":3900,"target":34963},{"buffer":0,"byteOffset":598932,"byteLength":2064,"target":34963},{"buffer":0,"byteOffset":600996,"byteLength":3900,"target":34963},{"buffer":0,"byteOffset":604896,"byteLength":2064,"target":34963},{"buffer":0,"byteOffset":606960,"byteLength":3900,"target":34963},{"buffer":0,"byteOffset":610860,"byteLength":1932,"target":34963}],"buffers":[{"byteLength":612792,"uri":"data:application/octet-stream;base64,"}],"accessors":[{"bufferView":0,"componentType":5126,"count":17755,"max":[3.889556407928467,2.2168970108032227,4.280638694763184],"min":[-3.944368600845337,-0.44001713395118713,-4.154228210449219],"type":"VEC3"},{"bufferView":1,"componentType":5126,"count":17755,"max":[0.999969482421875,1,0.999969482421875],"min":[-0.999908447265625,-1,-0.999969482421875],"type":"VEC3"},{"bufferView":2,"componentType":5123,"count":1932,"max":[417],"min":[0],"type":"SCALAR"},{"bufferView":3,"componentType":5123,"count":1950,"max":[742],"min":[418],"type":"SCALAR"},{"bufferView":4,"componentType":5123,"count":1032,"max":[916],"min":[743],"type":"SCALAR"},{"bufferView":5,"componentType":5123,"count":966,"max":[1125],"min":[917],"type":"SCALAR"},{"bufferView":6,"componentType":5123,"count":19524,"max":[4397],"min":[1126],"type":"SCALAR"},{"bufferView":7,"componentType":5123,"count":1032,"max":[4636],"min":[4398],"type":"SCALAR"},{"bufferView":8,"componentType":5123,"count":51144,"max":[14118],"min":[4637],"type":"SCALAR"},{"bufferView":9,"componentType":5123,"count":1044,"max":[14294],"min":[14119],"type":"SCALAR"},{"bufferView":10,"componentType":5123,"count":5832,"max":[16222],"min":[14295],"type":"SCALAR"},{"bufferView":11,"componentType":5123,"count":1950,"max":[16547],"min":[16223],"type":"SCALAR"},{"bufferView":12,"componentType":5123,"count":1032,"max":[16721],"min":[16548],"type":"SCALAR"},{"bufferView":13,"componentType":5123,"count":1950,"max":[17046],"min":[16722],"type":"SCALAR"},{"bufferView":14,"componentType":5123,"count":1032,"max":[17220],"min":[17047],"type":"SCALAR"},{"bufferView":15,"componentType":5123,"count":1950,"max":[17545],"min":[17221],"type":"SCALAR"},{"bufferView":16,"componentType":5123,"count":966,"max":[17754],"min":[17546],"type":"SCALAR"}],"materials":[{"pbrMetallicRoughness":{"baseColorFactor":[0,0.4470588235294118,0.6392156862745098,1],"metallicFactor":0.5,"roughnessFactor":0.5},"name":"Material.004"},{"pbrMetallicRoughness":{"baseColorFactor":[0,1,0,1],"metallicFactor":0.5,"roughnessFactor":0.5},"name":"Material.002"},{"pbrMetallicRoughness":{"baseColorFactor":[0.4,0.4,0.4,1],"metallicFactor":0.5,"roughnessFactor":0.5},"name":"Material.003"},{"pbrMetallicRoughness":{"baseColorFactor":[0.17647058823529413,0.17647058823529413,0.17647058823529413,1],"metallicFactor":0.5,"roughnessFactor":0.5},"name":"Material.001"},{"pbrMetallicRoughness":{"baseColorFactor":[1,0,0,1],"metallicFactor":0.5,"roughnessFactor":0.5},"name":"Material.005"}],"meshes":[{"primitives":[{"mode":4,"attributes":{"POSITION":0,"NORMAL":1},"indices":2,"material":0},{"mode":4,"attributes":{"POSITION":0,"NORMAL":1},"indices":3,"material":1},{"mode":4,"attributes":{"POSITION":0,"NORMAL":1},"indices":4,"material":2},{"mode":4,"attributes":{"POSITION":0,"NORMAL":1},"indices":5,"material":0},{"mode":4,"attributes":{"POSITION":0,"NORMAL":1},"indices":6,"material":1},{"mode":4,"attributes":{"POSITION":0,"NORMAL":1},"indices":7,"material":2},{"mode":4,"attributes":{"POSITION":0,"NORMAL":1},"indices":8,"material":3},{"mode":4,"attributes":{"POSITION":0,"NORMAL":1},"indices":9,"material":2},{"mode":4,"attributes":{"POSITION":0,"NORMAL":1},"indices":10,"material":3},{"mode":4,"attributes":{"POSITION":0,"NORMAL":1},"indices":11,"material":4},{"mode":4,"attributes":{"POSITION":0,"NORMAL":1},"indices":12,"material":2},{"mode":4,"attributes":{"POSITION":0,"NORMAL":1},"indices":13,"material":4},{"mode":4,"attributes":{"POSITION":0,"NORMAL":1},"indices":14,"material":2},{"mode":4,"attributes":{"POSITION":0,"NORMAL":1},"indices":15,"material":1},{"mode":4,"attributes":{"POSITION":0,"NORMAL":1},"indices":16,"material":0}]}]}