{
    "asset" : {
        "generator" : "Khronos glTF Blender I/O v1.1.46",
        "version" : "2.0"
    },
    "scene" : 0,
    "scenes" : [
        {
            "name" : "Scene",
            "nodes" : [
                0
            ]
        }
    ],
    "nodes" : [
        {
            "mesh" : 0,
            "name" : "quad+",
            "scale" : [
                0.11435272544622421,
                0.11435272544622421,
                0.11435272544622421
            ]
        }
    ],
    "materials" : [
        {
            "emissiveFactor" : [
                0,
                0,
                0
            ],
            "name" : "Material.002",
            "pbrMetallicRoughness" : {
                "baseColorFactor" : [
                    0,
                    0.7156831622123718,
                    1,
                    1
                ],
                "metallicFactor" : 0.5,
                "roughnessFactor" : 0.5
            }
        },
        {
            "emissiveFactor" : [
                0,
                0,
                0
            ],
            "name" : "Material.003",
            "pbrMetallicRoughness" : {
                "baseColorFactor" : [
                    0.4000000059604645,
                    0.4000000059604645,
                    0.4000000059604645,
                    1
                ],
                "metallicFactor" : 0.5,
                "roughnessFactor" : 0.5
            }
        },
        {
            "emissiveFactor" : [
                0,
                0,
                0
            ],
            "name" : "Material.004",
            "pbrMetallicRoughness" : {
                "baseColorFactor" : [
                    0.005700832698494196,
                    0.004546416457742453,
                    0.6392157673835754,
                    1
                ],
                "metallicFactor" : 0.5,
                "roughnessFactor" : 0.5
            }
        },
        {
            "emissiveFactor" : [
                0,
                0,
                0
            ],
            "name" : "Material.005",
            "pbrMetallicRoughness" : {
                "baseColorFactor" : [
                    0.01413710881024599,
                    1,
                    0,
                    1
                ],
                "metallicFactor" : 0.5,
                "roughnessFactor" : 0.5
            }
        },
        {
            "emissiveFactor" : [
                0,
                0,
                0
            ],
            "name" : "Material.001",
            "pbrMetallicRoughness" : {
                "baseColorFactor" : [
                    0.1764705926179886,
                    0.1764705926179886,
                    0.1764705926179886,
                    1
                ],
                "metallicFactor" : 0.5,
                "roughnessFactor" : 0.5
            }
        }
    ],
    "meshes" : [
        {
            "name" : "green1.001",
            "primitives" : [
                {
                    "attributes" : {
                        "POSITION" : 0,
                        "NORMAL" : 1,
                        "TEXCOORD_0" : 2
                    },
                    "indices" : 3,
                    "material" : 0
                },
                {
                    "attributes" : {
                        "POSITION" : 4,
                        "NORMAL" : 5,
                        "TEXCOORD_0" : 6
                    },
                    "indices" : 7,
                    "material" : 1
                },
                {
                    "attributes" : {
                        "POSITION" : 8,
                        "NORMAL" : 9,
                        "TEXCOORD_0" : 10
                    },
                    "indices" : 11,
                    "material" : 2
                },
                {
                    "attributes" : {
                        "POSITION" : 12,
                        "NORMAL" : 13,
                        "TEXCOORD_0" : 14
                    },
                    "indices" : 15,
                    "material" : 3
                },
                {
                    "attributes" : {
                        "POSITION" : 16,
                        "NORMAL" : 17,
                        "TEXCOORD_0" : 18
                    },
                    "indices" : 19,
                    "material" : 4
                }
            ]
        }
    ],
    "accessors" : [
        {
            "bufferView" : 0,
            "componentType" : 5126,
            "count" : 650,
            "max" : [
                3.9575252532958984,
                0.526587724685669,
                1.9154118299484253
            ],
            "min" : [
                -3.9575257301330566,
                0.3515132963657379,
                -1.9154105186462402
            ],
            "type" : "VEC3"
        },
        {
            "bufferView" : 1,
            "componentType" : 5126,
            "count" : 650,
            "type" : "VEC3"
        },
        {
            "bufferView" : 2,
            "componentType" : 5126,
            "count" : 650,
            "type" : "VEC2"
        },
        {
            "bufferView" : 3,
            "componentType" : 5123,
            "count" : 3900,
            "type" : "SCALAR"
        },
        {
            "bufferView" : 4,
            "componentType" : 5126,
            "count" : 792,
            "max" : [
                4.281612396240234,
                0.0830751433968544,
                4.281612396240234
            ],
            "min" : [
                -4.281612396240234,
                -0.07949437201023102,
                -4.281612396240234
            ],
            "type" : "VEC3"
        },
        {
            "bufferView" : 5,
            "componentType" : 5126,
            "count" : 792,
            "type" : "VEC3"
        },
        {
            "bufferView" : 6,
            "componentType" : 5126,
            "count" : 792,
            "type" : "VEC2"
        },
        {
            "bufferView" : 7,
            "componentType" : 5123,
            "count" : 4308,
            "type" : "SCALAR"
        },
        {
            "bufferView" : 8,
            "componentType" : 5126,
            "count" : 1140,
            "max" : [
                4.169512748718262,
                0.5641725659370422,
                4.169512748718262
            ],
            "min" : [
                -4.169512748718262,
                -0.04985775053501129,
                -4.169512748718262
            ],
            "type" : "VEC3"
        },
        {
            "bufferView" : 9,
            "componentType" : 5126,
            "count" : 1140,
            "type" : "VEC3"
        },
        {
            "bufferView" : 10,
            "componentType" : 5126,
            "count" : 1140,
            "type" : "VEC2"
        },
        {
            "bufferView" : 11,
            "componentType" : 5123,
            "count" : 4296,
            "type" : "SCALAR"
        },
        {
            "bufferView" : 12,
            "componentType" : 5126,
            "count" : 690,
            "max" : [
                1.9154130220413208,
                0.526587724685669,
                3.9575247764587402
            ],
            "min" : [
                -1.9154117107391357,
                0.15278978645801544,
                -3.9575252532958984
            ],
            "type" : "VEC3"
        },
        {
            "bufferView" : 13,
            "componentType" : 5126,
            "count" : 690,
            "type" : "VEC3"
        },
        {
            "bufferView" : 14,
            "componentType" : 5126,
            "count" : 690,
            "type" : "VEC2"
        },
        {
            "bufferView" : 15,
            "componentType" : 5123,
            "count" : 3996,
            "type" : "SCALAR"
        },
        {
            "bufferView" : 16,
            "componentType" : 5126,
            "count" : 6220,
            "max" : [
                2.103792428970337,
                0.13068155944347382,
                2.103792428970337
            ],
            "min" : [
                -2.103792428970337,
                -0.08912554383277893,
                -2.103792428970337
            ],
            "type" : "VEC3"
        },
        {
            "bufferView" : 17,
            "componentType" : 5126,
            "count" : 6220,
            "type" : "VEC3"
        },
        {
            "bufferView" : 18,
            "componentType" : 5126,
            "count" : 6220,
            "type" : "VEC2"
        },
        {
            "bufferView" : 19,
            "componentType" : 5123,
            "count" : 11676,
            "type" : "SCALAR"
        }
    ],
    "bufferViews" : [
        {
            "buffer" : 0,
            "byteLength" : 7800,
            "byteOffset" : 0
        },
        {
            "buffer" : 0,
            "byteLength" : 7800,
            "byteOffset" : 7800
        },
        {
            "buffer" : 0,
            "byteLength" : 5200,
            "byteOffset" : 15600
        },
        {
            "buffer" : 0,
            "byteLength" : 7800,
            "byteOffset" : 20800
        },
        {
            "buffer" : 0,
            "byteLength" : 9504,
            "byteOffset" : 28600
        },
        {
            "buffer" : 0,
            "byteLength" : 9504,
            "byteOffset" : 38104
        },
        {
            "buffer" : 0,
            "byteLength" : 6336,
            "byteOffset" : 47608
        },
        {
            "buffer" : 0,
            "byteLength" : 8616,
            "byteOffset" : 53944
        },
        {
            "buffer" : 0,
            "byteLength" : 13680,
            "byteOffset" : 62560
        },
        {
            "buffer" : 0,
            "byteLength" : 13680,
            "byteOffset" : 76240
        },
        {
            "buffer" : 0,
            "byteLength" : 9120,
            "byteOffset" : 89920
        },
        {
            "buffer" : 0,
            "byteLength" : 8592,
            "byteOffset" : 99040
        },
        {
            "buffer" : 0,
            "byteLength" : 8280,
            "byteOffset" : 107632
        },
        {
            "buffer" : 0,
            "byteLength" : 8280,
            "byteOffset" : 115912
        },
        {
            "buffer" : 0,
            "byteLength" : 5520,
            "byteOffset" : 124192
        },
        {
            "buffer" : 0,
            "byteLength" : 7992,
            "byteOffset" : 129712
        },
        {
            "buffer" : 0,
            "byteLength" : 74640,
            "byteOffset" : 137704
        },
        {
            "buffer" : 0,
            "byteLength" : 74640,
            "byteOffset" : 212344
        },
        {
            "buffer" : 0,
            "byteLength" : 49760,
            "byteOffset" : 286984
        },
        {
            "buffer" : 0,
            "byteLength" : 23352,
            "byteOffset" : 336744
        }
    ],
    "buffers" : [
        {
            "byteLength" : 360096,
            "uri" : "data:application/octet-stream;base64,"
        }
    ]
}
