{"asset":{"version":"2.0","generator":"THREE.GLTFExporter"},"scenes":[{"nodes":[0],"name":"AuxScene"}],"scene":0,"nodes":[{"mesh":0}],"bufferViews":[{"buffer":0,"byteOffset":0,"byteLength":219744,"target":34962,"byteStride":12},{"buffer":0,"byteOffset":219744,"byteLength":219744,"target":34962,"byteStride":12},{"buffer":0,"byteOffset":439488,"byteLength":113952,"target":34963},{"buffer":0,"byteOffset":553440,"byteLength":2088,"target":34963},{"buffer":0,"byteOffset":555528,"byteLength":5796,"target":34963},{"buffer":0,"byteOffset":561324,"byteLength":2064,"target":34963},{"buffer":0,"byteOffset":563388,"byteLength":1932,"target":34963},{"buffer":0,"byteOffset":565320,"byteLength":7344,"target":34963},{"buffer":0,"byteOffset":572664,"byteLength":3900,"target":34963},{"buffer":0,"byteOffset":576564,"byteLength":3900,"target":34963},{"buffer":0,"byteOffset":580464,"byteLength":39048,"target":34963},{"buffer":0,"byteOffset":619512,"byteLength":3900,"target":34963},{"buffer":0,"byteOffset":623412,"byteLength":3900,"target":34963},{"buffer":0,"byteOffset":627312,"byteLength":5280,"target":34963}],"buffers":[{"byteLength":632592,"uri":"data:application/octet-stream;base64,"}],"accessors":[{"bufferView":0,"componentType":5126,"count":18312,"max":[3.994749069213867,0.9013319611549377,4.970479488372803],"min":[-3.9774324893951416,-0.28529873490333557,-3.6179416179656982],"type":"VEC3"},{"bufferView":1,"componentType":5126,"count":18312,"max":[0.999969482421875,1,0.999969482421875],"min":[-0.999969482421875,-1,-0.999969482421875],"type":"VEC3"},{"bufferView":2,"componentType":5123,"count":56976,"max":[11409],"min":[0],"type":"SCALAR"},{"bufferView":3,"componentType":5123,"count":1044,"max":[11585],"min":[11410],"type":"SCALAR"},{"bufferView":4,"componentType":5123,"count":2898,"max":[12212],"min":[11586],"type":"SCALAR"},{"bufferView":5,"componentType":5123,"count":1032,"max":[12452],"min":[12213],"type":"SCALAR"},{"bufferView":6,"componentType":5123,"count":966,"max":[12661],"min":[12453],"type":"SCALAR"},{"bufferView":7,"componentType":5123,"count":3672,"max":[13287],"min":[12662],"type":"SCALAR"},{"bufferView":8,"componentType":5123,"count":1950,"max":[13612],"min":[13288],"type":"SCALAR"},{"bufferView":9,"componentType":5123,"count":1950,"max":[13937],"min":[13613],"type":"SCALAR"},{"bufferView":10,"componentType":5123,"count":19524,"max":[17209],"min":[13938],"type":"SCALAR"},{"bufferView":11,"componentType":5123,"count":1950,"max":[17534],"min":[17210],"type":"SCALAR"},{"bufferView":12,"componentType":5123,"count":1950,"max":[17859],"min":[17535],"type":"SCALAR"},{"bufferView":13,"componentType":5123,"count":2640,"max":[18311],"min":[17860],"type":"SCALAR"}],"materials":[{"pbrMetallicRoughness":{"baseColorFactor":[0.17647058823529413,0.17647058823529413,0.17647058823529413,1],"metallicFactor":0.5,"roughnessFactor":0.5},"name":"Material.001"},{"pbrMetallicRoughness":{"baseColorFactor":[0.4,0.4,0.4,1],"metallicFactor":0.5,"roughnessFactor":0.5},"name":"Material.003"},{"pbrMetallicRoughness":{"baseColorFactor":[0,0.4470588235294118,0.6392156862745098,1],"metallicFactor":0.5,"roughnessFactor":0.5},"name":"Material.004"},{"pbrMetallicRoughness":{"baseColorFactor":[0,1,0,1],"metallicFactor":0.5,"roughnessFactor":0.5},"name":"Material.002"},{"pbrMetallicRoughness":{"baseColorFactor":[1,0,0,1],"metallicFactor":0.5,"roughnessFactor":0.5},"name":"Material.005"}],"meshes":[{"primitives":[{"mode":4,"attributes":{"POSITION":0,"NORMAL":1},"indices":2,"material":0},{"mode":4,"attributes":{"POSITION":0,"NORMAL":1},"indices":3,"material":1},{"mode":4,"attributes":{"POSITION":0,"NORMAL":1},"indices":4,"material":2},{"mode":4,"attributes":{"POSITION":0,"NORMAL":1},"indices":5,"material":1},{"mode":4,"attributes":{"POSITION":0,"NORMAL":1},"indices":6,"material":2},{"mode":4,"attributes":{"POSITION":0,"NORMAL":1},"indices":7,"material":1},{"mode":4,"attributes":{"POSITION":0,"NORMAL":1},"indices":8,"material":3},{"mode":4,"attributes":{"POSITION":0,"NORMAL":1},"indices":9,"material":4},{"mode":4,"attributes":{"POSITION":0,"NORMAL":1},"indices":10,"material":3},{"mode":4,"attributes":{"POSITION":0,"NORMAL":1},"indices":11,"material":4},{"mode":4,"attributes":{"POSITION":0,"NORMAL":1},"indices":12,"material":3},{"mode":4,"attributes":{"POSITION":0,"NORMAL":1},"indices":13,"material":1}]}]}