{"asset":{"version":"2.0","generator":"THREE.GLTFExporter"},"scenes":[{"nodes":[0],"name":"AuxScene"}],"scene":0,"nodes":[{"mesh":0}],"bufferViews":[{"buffer":0,"byteOffset":0,"byteLength":111024,"target":34962,"byteStride":12},{"buffer":0,"byteOffset":111024,"byteLength":111024,"target":34962,"byteStride":12},{"buffer":0,"byteOffset":222048,"byteLength":1932,"target":34963},{"buffer":0,"byteOffset":223980,"byteLength":3900,"target":34963},{"buffer":0,"byteOffset":227880,"byteLength":3900,"target":34963},{"buffer":0,"byteOffset":231780,"byteLength":1932,"target":34963},{"buffer":0,"byteOffset":233712,"byteLength":4128,"target":34963},{"buffer":0,"byteOffset":237840,"byteLength":11664,"target":34963},{"buffer":0,"byteOffset":249504,"byteLength":2064,"target":34963},{"buffer":0,"byteOffset":251568,"byteLength":11664,"target":34963},{"buffer":0,"byteOffset":263232,"byteLength":42948,"target":34963},{"buffer":0,"byteOffset":306180,"byteLength":1932,"target":34963}],"buffers":[{"byteLength":308112,"uri":"data:application/octet-stream;base64,"}],"accessors":[{"bufferView":0,"componentType":5126,"count":9252,"max":[4.251588344573975,0.6745026111602783,4.0607686042785645],"min":[-4.262484550476074,-0.08109244704246521,-3.7487804889678955],"type":"VEC3"},{"bufferView":1,"componentType":5126,"count":9252,"max":[0.999969482421875,1,1],"min":[-0.999969482421875,-1,-1],"type":"VEC3"},{"bufferView":2,"componentType":5123,"count":966,"max":[208],"min":[0],"type":"SCALAR"},{"bufferView":3,"componentType":5123,"count":1950,"max":[533],"min":[209],"type":"SCALAR"},{"bufferView":4,"componentType":5123,"count":1950,"max":[858],"min":[534],"type":"SCALAR"},{"bufferView":5,"componentType":5123,"count":966,"max":[1067],"min":[859],"type":"SCALAR"},{"bufferView":6,"componentType":5123,"count":2064,"max":[1415],"min":[1068],"type":"SCALAR"},{"bufferView":7,"componentType":5123,"count":5832,"max":[3343],"min":[1416],"type":"SCALAR"},{"bufferView":8,"componentType":5123,"count":1032,"max":[3517],"min":[3344],"type":"SCALAR"},{"bufferView":9,"componentType":5123,"count":5832,"max":[5445],"min":[3518],"type":"SCALAR"},{"bufferView":10,"componentType":5123,"count":21474,"max":[9042],"min":[5446],"type":"SCALAR"},{"bufferView":11,"componentType":5123,"count":966,"max":[9251],"min":[9043],"type":"SCALAR"}],"materials":[{"pbrMetallicRoughness":{"baseColorFactor":[0,0.4470588235294118,0.6392156862745098,1],"metallicFactor":0.5,"roughnessFactor":0.5},"name":"Material.004"},{"pbrMetallicRoughness":{"baseColorFactor":[0,1,0,1],"metallicFactor":0.5,"roughnessFactor":0.5},"name":"Material.002"},{"pbrMetallicRoughness":{"baseColorFactor":[1,0,0,1],"metallicFactor":0.5,"roughnessFactor":0.5},"name":"Material.005"},{"pbrMetallicRoughness":{"baseColorFactor":[0.4,0.4,0.4,1],"metallicFactor":0.5,"roughnessFactor":0.5},"name":"Material.003"},{"pbrMetallicRoughness":{"baseColorFactor":[0.17647058823529413,0.17647058823529413,0.17647058823529413,1],"metallicFactor":0.5,"roughnessFactor":0.5},"name":"Material.001"}],"meshes":[{"primitives":[{"mode":4,"attributes":{"POSITION":0,"NORMAL":1},"indices":2,"material":0},{"mode":4,"attributes":{"POSITION":0,"NORMAL":1},"indices":3,"material":1},{"mode":4,"attributes":{"POSITION":0,"NORMAL":1},"indices":4,"material":2},{"mode":4,"attributes":{"POSITION":0,"NORMAL":1},"indices":5,"material":0},{"mode":4,"attributes":{"POSITION":0,"NORMAL":1},"indices":6,"material":3},{"mode":4,"attributes":{"POSITION":0,"NORMAL":1},"indices":7,"material":4},{"mode":4,"attributes":{"POSITION":0,"NORMAL":1},"indices":8,"material":3},{"mode":4,"attributes":{"POSITION":0,"NORMAL":1},"indices":9,"material":4},{"mode":4,"attributes":{"POSITION":0,"NORMAL":1},"indices":10,"material":1},{"mode":4,"attributes":{"POSITION":0,"NORMAL":1},"indices":11,"material":0}]}]}