{"asset":{"version":"2.0","generator":"THREE.GLTFExporter"},"scenes":[{"nodes":[0],"name":"AuxScene"}],"scene":0,"nodes":[{"mesh":0}],"bufferViews":[{"buffer":0,"byteOffset":0,"byteLength":117432,"target":34962,"byteStride":12},{"buffer":0,"byteOffset":117432,"byteLength":117432,"target":34962,"byteStride":12},{"buffer":0,"byteOffset":234864,"byteLength":1932,"target":34963},{"buffer":0,"byteOffset":236796,"byteLength":3900,"target":34963},{"buffer":0,"byteOffset":240696,"byteLength":3900,"target":34963},{"buffer":0,"byteOffset":244596,"byteLength":2064,"target":34963},{"buffer":0,"byteOffset":246660,"byteLength":3900,"target":34963},{"buffer":0,"byteOffset":250560,"byteLength":2064,"target":34963},{"buffer":0,"byteOffset":252624,"byteLength":11664,"target":34963},{"buffer":0,"byteOffset":264288,"byteLength":2064,"target":34963},{"buffer":0,"byteOffset":266352,"byteLength":11664,"target":34963},{"buffer":0,"byteOffset":278016,"byteLength":42948,"target":34963},{"buffer":0,"byteOffset":320964,"byteLength":5796,"target":34963}],"buffers":[{"byteLength":326760,"uri":"data:application/octet-stream;base64,"}],"accessors":[{"bufferView":0,"componentType":5126,"count":9786,"max":[5.025472164154053,0.7648524045944214,5.294832706451416],"min":[-5.045167922973633,-0.5003297924995422,-2.8327064514160156],"type":"VEC3"},{"bufferView":1,"componentType":5126,"count":9786,"max":[0.999969482421875,1,1],"min":[-0.999969482421875,-1,-1],"type":"VEC3"},{"bufferView":2,"componentType":5123,"count":966,"max":[208],"min":[0],"type":"SCALAR"},{"bufferView":3,"componentType":5123,"count":1950,"max":[533],"min":[209],"type":"SCALAR"},{"bufferView":4,"componentType":5123,"count":1950,"max":[858],"min":[534],"type":"SCALAR"},{"bufferView":5,"componentType":5123,"count":1032,"max":[1032],"min":[859],"type":"SCALAR"},{"bufferView":6,"componentType":5123,"count":1950,"max":[1357],"min":[1033],"type":"SCALAR"},{"bufferView":7,"componentType":5123,"count":1032,"max":[1531],"min":[1358],"type":"SCALAR"},{"bufferView":8,"componentType":5123,"count":5832,"max":[3459],"min":[1532],"type":"SCALAR"},{"bufferView":9,"componentType":5123,"count":1032,"max":[3633],"min":[3460],"type":"SCALAR"},{"bufferView":10,"componentType":5123,"count":5832,"max":[5561],"min":[3634],"type":"SCALAR"},{"bufferView":11,"componentType":5123,"count":21474,"max":[9158],"min":[5562],"type":"SCALAR"},{"bufferView":12,"componentType":5123,"count":2898,"max":[9785],"min":[9159],"type":"SCALAR"}],"materials":[{"pbrMetallicRoughness":{"baseColorFactor":[0,0.4470588235294118,0.6392156862745098,1],"metallicFactor":0.5,"roughnessFactor":0.5},"name":"Material.004"},{"pbrMetallicRoughness":{"baseColorFactor":[1,0,0,1],"metallicFactor":0.5,"roughnessFactor":0.5},"name":"Material.005"},{"pbrMetallicRoughness":{"baseColorFactor":[0,1,0,1],"metallicFactor":0.5,"roughnessFactor":0.5},"name":"Material.002"},{"pbrMetallicRoughness":{"baseColorFactor":[0.4,0.4,0.4,1],"metallicFactor":0.5,"roughnessFactor":0.5},"name":"Material.003"},{"pbrMetallicRoughness":{"baseColorFactor":[0.17647058823529413,0.17647058823529413,0.17647058823529413,1],"metallicFactor":0.5,"roughnessFactor":0.5},"name":"Material.001"}],"meshes":[{"primitives":[{"mode":4,"attributes":{"POSITION":0,"NORMAL":1},"indices":2,"material":0},{"mode":4,"attributes":{"POSITION":0,"NORMAL":1},"indices":3,"material":1},{"mode":4,"attributes":{"POSITION":0,"NORMAL":1},"indices":4,"material":2},{"mode":4,"attributes":{"POSITION":0,"NORMAL":1},"indices":5,"material":3},{"mode":4,"attributes":{"POSITION":0,"NORMAL":1},"indices":6,"material":1},{"mode":4,"attributes":{"POSITION":0,"NORMAL":1},"indices":7,"material":3},{"mode":4,"attributes":{"POSITION":0,"NORMAL":1},"indices":8,"material":4},{"mode":4,"attributes":{"POSITION":0,"NORMAL":1},"indices":9,"material":3},{"mode":4,"attributes":{"POSITION":0,"NORMAL":1},"indices":10,"material":4},{"mode":4,"attributes":{"POSITION":0,"NORMAL":1},"indices":11,"material":2},{"mode":4,"attributes":{"POSITION":0,"NORMAL":1},"indices":12,"material":0}]}]}