{"asset":{"version":"2.0","generator":"THREE.GLTFExporter"},"scenes":[{"nodes":[0],"name":"AuxScene"}],"scene":0,"nodes":[{"mesh":0}],"bufferViews":[{"buffer":0,"byteOffset":0,"byteLength":130248,"target":34962,"byteStride":12},{"buffer":0,"byteOffset":130248,"byteLength":130248,"target":34962,"byteStride":12},{"buffer":0,"byteOffset":260496,"byteLength":1932,"target":34963},{"buffer":0,"byteOffset":262428,"byteLength":7800,"target":34963},{"buffer":0,"byteOffset":270228,"byteLength":3900,"target":34963},{"buffer":0,"byteOffset":274128,"byteLength":3900,"target":34963},{"buffer":0,"byteOffset":278028,"byteLength":2064,"target":34963},{"buffer":0,"byteOffset":280092,"byteLength":3900,"target":34963},{"buffer":0,"byteOffset":283992,"byteLength":2064,"target":34963},{"buffer":0,"byteOffset":286056,"byteLength":11664,"target":34963},{"buffer":0,"byteOffset":297720,"byteLength":2064,"target":34963},{"buffer":0,"byteOffset":299784,"byteLength":11664,"target":34963},{"buffer":0,"byteOffset":311448,"byteLength":42948,"target":34963},{"buffer":0,"byteOffset":354396,"byteLength":9660,"target":34963}],"buffers":[{"byteLength":364056,"uri":"data:application/octet-stream;base64,"}],"accessors":[{"bufferView":0,"componentType":5126,"count":10854,"max":[5.025472164154053,0.7288241386413574,4.592784404754639],"min":[-5.045167922973633,-0.5363580584526062,-4.5284552574157715],"type":"VEC3"},{"bufferView":1,"componentType":5126,"count":10854,"max":[0.999969482421875,1,1],"min":[-0.999969482421875,-1,-1],"type":"VEC3"},{"bufferView":2,"componentType":5123,"count":966,"max":[208],"min":[0],"type":"SCALAR"},{"bufferView":3,"componentType":5123,"count":3900,"max":[858],"min":[209],"type":"SCALAR"},{"bufferView":4,"componentType":5123,"count":1950,"max":[1183],"min":[859],"type":"SCALAR"},{"bufferView":5,"componentType":5123,"count":1950,"max":[1508],"min":[1184],"type":"SCALAR"},{"bufferView":6,"componentType":5123,"count":1032,"max":[1682],"min":[1509],"type":"SCALAR"},{"bufferView":7,"componentType":5123,"count":1950,"max":[2007],"min":[1683],"type":"SCALAR"},{"bufferView":8,"componentType":5123,"count":1032,"max":[2181],"min":[2008],"type":"SCALAR"},{"bufferView":9,"componentType":5123,"count":5832,"max":[4109],"min":[2182],"type":"SCALAR"},{"bufferView":10,"componentType":5123,"count":1032,"max":[4283],"min":[4110],"type":"SCALAR"},{"bufferView":11,"componentType":5123,"count":5832,"max":[6211],"min":[4284],"type":"SCALAR"},{"bufferView":12,"componentType":5123,"count":21474,"max":[9808],"min":[6212],"type":"SCALAR"},{"bufferView":13,"componentType":5123,"count":4830,"max":[10853],"min":[9809],"type":"SCALAR"}],"materials":[{"pbrMetallicRoughness":{"baseColorFactor":[0,0.4470588235294118,0.6392156862745098,1],"metallicFactor":0.5,"roughnessFactor":0.5},"name":"Material.004"},{"pbrMetallicRoughness":{"baseColorFactor":[0,1,0,1],"metallicFactor":0.5,"roughnessFactor":0.5},"name":"Material.002"},{"pbrMetallicRoughness":{"baseColorFactor":[1,0,0,1],"metallicFactor":0.5,"roughnessFactor":0.5},"name":"Material.005"},{"pbrMetallicRoughness":{"baseColorFactor":[0.4,0.4,0.4,1],"metallicFactor":0.5,"roughnessFactor":0.5},"name":"Material.003"},{"pbrMetallicRoughness":{"baseColorFactor":[0.17647058823529413,0.17647058823529413,0.17647058823529413,1],"metallicFactor":0.5,"roughnessFactor":0.5},"name":"Material.001"}],"meshes":[{"primitives":[{"mode":4,"attributes":{"POSITION":0,"NORMAL":1},"indices":2,"material":0},{"mode":4,"attributes":{"POSITION":0,"NORMAL":1},"indices":3,"material":1},{"mode":4,"attributes":{"POSITION":0,"NORMAL":1},"indices":4,"material":2},{"mode":4,"attributes":{"POSITION":0,"NORMAL":1},"indices":5,"material":1},{"mode":4,"attributes":{"POSITION":0,"NORMAL":1},"indices":6,"material":3},{"mode":4,"attributes":{"POSITION":0,"NORMAL":1},"indices":7,"material":2},{"mode":4,"attributes":{"POSITION":0,"NORMAL":1},"indices":8,"material":3},{"mode":4,"attributes":{"POSITION":0,"NORMAL":1},"indices":9,"material":4},{"mode":4,"attributes":{"POSITION":0,"NORMAL":1},"indices":10,"material":3},{"mode":4,"attributes":{"POSITION":0,"NORMAL":1},"indices":11,"material":4},{"mode":4,"attributes":{"POSITION":0,"NORMAL":1},"indices":12,"material":1},{"mode":4,"attributes":{"POSITION":0,"NORMAL":1},"indices":13,"material":0}]}]}